<svg xmlns="http://www.w3.org/2000/svg" width="96" height="96"><style type="text/css">.st0{fill:#EE1449;} .st1{display:none;} .st2{display:inline;opacity:0.18;fill:#C1272D;}</style><g id="Слой_1"><path d="M-114-218c-.56 0-1.12-.24-1.5-.7-13.4-15.42-12.54-34.6-12.5-35.4.06-1.07.94-1.9 2-1.9h8c1.1 0 2 .9 2 2s-.9 2-2 2h-6c.16 4.85 1.44 18.1 10.37 29.32 1.6-1.15 2.22-1.74 2.23-1.74.78-.77 2.05-.76 2.82.02s.77 2.04 0 2.8c-.12.13-1.23 1.2-4.3 3.26-.35.23-.74.34-1.12.34zM-61-218c-.4 0-.77-.1-1.1-.34-3.1-2.05-4.2-3.13-4.32-3.25-.78-.77-.77-2.03 0-2.82.8-.77 2.05-.78 2.84 0 0 0 .6.6 2.2 1.74 8.92-11.23 10.2-24.47 10.36-29.32H-59c-1.1 0-2-.9-2-2s.9-2 2-2h9.98c1.07 0 1.94.83 2 1.9.04.8.9 19.98-12.47 35.4-.38.46-.94.7-1.5.7zM-82-210h-12c-.37 0-.73-.1-1.04-.3C-117.06-223.8-120-234.5-120-270c0-1.1.9-2 2-2h60c1.1 0 2 .9 2 2 0 .2.03 5.52 0 8.03-.02 1.1-.9 1.94-2.03 1.97-1.1-.02-2-.92-1.97-2.03.02-1.5.02-4.15 0-5.97h-56c.13 33.9 3.75 42.37 22.57 54h10.93c12.94-6.9 17.9-12.63 20.38-23.44.24-1.08 1.3-1.75 2.4-1.5 1.07.23 1.74 1.3 1.5 2.38-2.77 12.14-8.53 18.78-22.85 26.33-.28.15-.6.23-.93.23zM-72-184h-32c-1.14 0-2.18-.5-2.85-1.34s-.88-1.97-.6-3.1l3.02-12.1c.5-1.97 2.4-3.46 4.43-3.46h24c2.03 0 3.93 1.5 4.43 3.46l3.03 12.1c.27 1.13.05 2.25-.6 3.1S-70.87-184-72-184zm0-4v2-2zm-31.44 0h30.88l-2.9-11.57c-.04-.18-.36-.43-.54-.43h-24c-.18 0-.5.25-.54.43l-2.9 11.57zM-82-200h-12c-1.16 0-2.2-.5-2.85-1.37-.65-.87-.82-2-.5-3.12l1.86-6.16c.58-1.9 2.5-3.34 4.5-3.34h6c2 0 3.92 1.44 4.5 3.34l1.84 6.17c.33 1.12.16 2.26-.5 3.13-.64.87-1.68 1.37-2.84 1.37zm0-4v2-2zm-11.3 0h10.6l-1.64-5.5c-.06-.22-.44-.5-.66-.5h-6c-.22 0-.6.28-.66.5l-1.65 5.5zM-70-260h-32c-1.1 0-2-.9-2-2s.9-2 2-2h32c1.1 0 2 .9 2 2s-.9 2-2 2zM-92-192h-11c-1.1 0-2-.9-2-2s.9-2 2-2h11c1.1 0 2 .9 2 2s-.9 2-2 2zM-58-256c-1.1 0-2 .9-2 2s.9 2 2 2 2-.9 2-2-.9-2-2-2zM-110-264c-1.1 0-2 .9-2 2s.9 2 2 2 2-.9 2-2-.9-2-2-2zM-84-196c-1.1 0-2 .9-2 2s.9 2 2 2 2-.9 2-2-.9-2-2-2zM-87.3-250c6.1 0 8.72 6.07 5.52 11l-4.38 6.05h6.47c0 1.9 0 3.06 0 4.95H-95v-.84l8.18-11.9c1.1-1.46 1.93-4.3-.8-4.3-1.25 0-2.15.58-2.15 2.1-1.84 0-2.93 0-4.73 0-.06-4.68 3.1-6.96 6.97-7.06.07 0 .15 0 .23 0m0-4c-.1 0-.22 0-.33 0-6.5.16-10.96 4.73-10.87 11.1.03 2.2 1.8 3.96 4 3.96h1.6l-5.4 7.84c-.45.67-.7 1.46-.7 2.26v.84c0 2.2 1.8 4 4 4h15.3c2.22 0 4-1.8 4-4v-4.95c0-1.78-1.16-3.3-2.77-3.8 0-.04.03-.06.05-.1 2.38-3.65 2.66-8.14.73-11.7-1.84-3.4-5.44-5.45-9.6-5.45zM-46 592.48c0-5.43-2.64-10.23-6.7-13.22.1-.7.15-1.38.15-2.1 0-8.76-6.87-15.9-15.5-16.36-1-5.02-5.42-8.8-10.72-8.8-3.75 0-7.17 1.9-9.23 4.78-2.06-2.9-5.48-4.78-9.23-4.78-5.3 0-9.72 3.78-10.7 8.8-8.65.46-15.52 7.6-15.52 16.36 0 .72.06 1.4.15 2.1-4.06 3-6.7 7.8-6.7 13.22 0 5.6 2.8 10.53 7.07 13.5-.33 1.28-.52 2.62-.52 4 0 8.95 7.15 16.2 16.03 16.4.1.1.2.16.3.24 1.74 3.7 5.5 5.38 9.9 5.38 3.74 0 7.16-1.52 9.22-4.12 2.06 2.6 5.48 4.12 9.23 4.12 4.4 0 8.15-1.7 9.9-5.38.1-.08.2-.15.3-.24 8.87-.2 16.02-7.45 16.02-16.4 0-1.38-.2-2.72-.52-4 4.27-2.97 7.07-7.9 7.07-13.5zM-78.77 556c3.3 0 6.15 2.34 6.8 5.58.03.2.08.37.15.55-.13.27-.2.56-.2.87 0 .92-.26 9-7.84 9-1.1 0-2 .9-2 2s.9 2 2 2c1.76 0 3.34-.3 4.75-.9.7 2.25 3.26 3.78 5.75 4.03.26.02.52.04.77.04 3.05 0 5.36-1.88 5.97-4.95.2-1.08-.5-2.13-1.58-2.35-1.08-.22-2.13.5-2.35 1.57-.1.47-.37 1.9-2.43 1.7-1.4-.13-2.35-1-2.35-1.3 0-.43-.14-.8-.36-1.14 2.4-2.52 3.2-5.86 3.48-7.9 6.53.4 11.63 5.8 11.63 12.36 0 .04 0 .1 0 .13-1.04-.12-2.1.04-3.16.5-2.43 1.05-4.18 3.48-4.46 6.17-.05.48-.06 1.08.03 1.76-2.74-.2-5.08.73-6.65 1.64-.9-2.28-2.52-3.92-4.3-4.9-3.42-1.9-7.6-1.58-10.92.57v-15.47c.78.35 1.62.58 2.45.67.26.02.52.03.77.03 3.05 0 5.36-1.87 5.97-4.94.2-1.08-.5-2.13-1.58-2.35-1.08-.2-2.13.5-2.35 1.57-.1.47-.36 1.9-2.43 1.7-1.4-.13-2.35-1-2.35-1.3 0-.44-.15-.84-.4-1.17.6-3.23 3.62-5.78 7.13-5.78zm-29.05 8.8c.27 2.04 1.1 5.38 3.48 7.9-.22.33-.35.7-.35 1.13 0 .3-.93 1.18-2.34 1.32-2.05.2-2.33-1.24-2.43-1.7-.22-1.1-1.27-1.8-2.35-1.58-1.1.22-1.8 1.27-1.57 2.35.62 3.07 2.93 4.95 5.98 4.95.25 0 .5-.02.77-.04 2.5-.25 5.04-1.78 5.76-4.03 1.42.6 3 .9 4.76.9 1.1 0 2-.9 2-2s-.9-2-2-2c-7.58 0-7.83-8.08-7.83-9 0-.3-.08-.6-.2-.87.06-.18.1-.36.15-.55.64-3.24 3.5-5.58 6.8-5.58 3.5 0 6.5 2.55 7.1 5.78-.23.33-.37.73-.37 1.16 0 .3-.93 1.18-2.34 1.3-2.05.23-2.34-1.22-2.43-1.7-.22-1.07-1.26-1.78-2.35-1.56-1.1.22-1.8 1.27-1.57 2.35.62 3.07 2.93 4.94 5.98 4.94.25 0 .5 0 .77-.03.83-.1 1.67-.32 2.45-.67V583c-3.25-2.1-7.25-2.43-10.63-.63-1.84.98-3.53 2.68-4.47 5.07-1.58-.94-4-1.95-6.85-1.7.42-2.28-.17-4.36-1.38-5.9-1.56-2-3.9-2.9-6.1-2.58 0-.03-.02-.07-.02-.1 0-6.55 5.1-11.96 11.63-12.36zm10.6 63.2c-2.27 0-5.2-.56-6.36-3.2-.2-.47-.48-.87-.82-1.22-.3-.88-.73-2.85.9-4.48.46-.35 2.8-.85 4.32-.08.52.26 1.04.7 1.04 1.9 0 1.1.9 2 2 2s2-.9 2-2c0-2-.78-3.68-2.18-4.8l2.88-3.84c.66-.9.48-2.14-.4-2.8-.9-.66-2.14-.48-2.8.4l-3.28 4.38c-.1.13-.17.27-.24.4-2.46-.24-5.02.46-6.13 1.57-1.9 1.9-2.44 4.13-2.37 6.04-6.06-.8-10.78-6.02-10.78-12.3 0-.96.14-2 .4-3.02.4-1.62-.23-3.32-1.6-4.26-3.35-2.34-5.35-6.15-5.35-10.22 0-3.98 1.85-7.62 5.07-10 .26-.18.48-.4.68-.63.15-.07.3-.14.45-.25 1.13-.85 2.55-.27 3.32.7 1.16 1.47 1.13 4.33-2.77 7.54-.86.7-.98 1.96-.28 2.82.4.48.97.73 1.55.73.44 0 .9-.16 1.27-.47.96-.8 1.76-1.6 2.42-2.43.15-.03.3-.08.44-.15 4.12-1.98 7.78 1.26 7.96 1.4 0 .03.03.03.04.05.02 1.38.24 2.9.75 4.54.27.87 1.06 1.42 1.92 1.42.2 0 .4-.03.58-.08 1.06-.33 1.65-1.44 1.33-2.5-1.3-4.28-.35-7.75 2.52-9.28 2.25-1.2 5.85-1.02 8.47 2.18.08.1.18.2.28.28v15.04c-1-.2-2.12-.6-3.1-1.38.6-1.17.98-2.47 1.13-3.85.13-1.1-.67-2.1-1.76-2.2-1.1-.13-2.1.66-2.2 1.76-.47 4.16-3.73 6.3-6.76 6.58-2.9.28-6.5-1.12-7.9-5.83-.32-1.06-1.44-1.66-2.5-1.34-1.05.32-1.66 1.43-1.34 2.5.7 2.28 1.85 4.2 3.35 5.64-.45.3-.9.66-1.32 1.1-1.6 1.7-2.3 4.07-2.1 7.03.07 1.06.95 1.87 2 1.87.04 0 .08 0 .13 0 1.1-.08 1.94-1.03 1.87-2.13-.12-1.8.22-3.14 1-4 .98-1.07 2.48-1.14 2.55-1.14.17 0 .34-.03.5-.08.97.27 2 .42 3.05.42.36 0 .73 0 1.1-.05 2.67-.25 5.05-1.36 6.86-3.07 1.8 1.4 3.86 2 5.47 2.23v14.56c0 3.93-3.64 5.98-7.23 5.98zm41.87-25.3c-1.37.93-2 2.63-1.6 4.25.26 1.03.4 2.06.4 3.03 0 6.27-4.72 11.5-10.78 12.3.07-1.92-.47-4.14-2.38-6.05-1.12-1.1-3.68-1.8-6.14-1.56-.07-.14-.14-.28-.24-.4l-3.27-4.4c-.67-.87-1.92-1.05-2.8-.4s-1.07 1.92-.4 2.8l2.87 3.85c-1.4 1.12-2.18 2.8-2.18 4.8 0 1.1.9 2 2 2s2-.9 2-2c0-1.2.52-1.64 1.04-1.9 1.52-.77 3.86-.27 4.28.04 1.67 1.67 1.26 3.63.94 4.52-.34.35-.62.75-.82 1.2-1.16 2.66-4.1 3.22-6.35 3.22-3.6 0-7.23-2.05-7.23-5.98v-14.5c1.73-.2 3.97-.68 5.9-1.9 1.75 1.48 3.96 2.45 6.43 2.67.37.03.74.04 1.1.04 1.06 0 2.1-.15 3.06-.42.14.04.3.08.48.08 0 0 1.55.05 2.55 1.15.78.85 1.12 2.2 1 4-.07 1.1.76 2.04 1.86 2.1.04.02.08.02.12.02 1.05 0 1.93-.8 2-1.87.2-2.96-.5-5.32-2.1-7.02-.42-.45-.87-.8-1.33-1.1 1.5-1.46 2.65-3.37 3.34-5.66.32-1.06-.3-2.17-1.34-2.5-1.06-.3-2.18.3-2.5 1.35-1.4 4.7-5 6.1-7.9 5.84-3.04-.26-6.3-2.4-6.76-6.57-.12-1.1-1.1-1.9-2.2-1.77s-1.9 1.1-1.77 2.2c.17 1.58.65 3.03 1.37 4.33-1.03.54-2.25.84-3.34 1v-15.14c.1-.08.2-.18.28-.28 2.56-3.13 6.32-3.43 8.7-2.1 2.85 1.56 3.7 4.98 2.3 9.15-.35 1.04.22 2.18 1.27 2.53.2.07.42.1.63.1.84 0 1.62-.52 1.9-1.36.57-1.7.83-3.27.87-4.7.5-.4 4-3.23 7.9-1.35.03.02.08.03.12.05.7.87 1.64 1.75 2.86 2.62.35.25.75.37 1.15.37.63 0 1.24-.3 1.63-.86.65-.9.44-2.14-.46-2.78-2.33-1.66-3.5-3.57-3.32-5.38.15-1.46 1.15-2.52 2.07-2.92.5-.22 1.22-.37 1.9.14.14.1.3.18.45.25.2.23.42.45.68.63 3.22 2.38 5.07 6.02 5.07 10 0 4.07-2 7.88-5.35 10.2zM-176.27-69.97c-.55-.96-1.77-1.3-2.73-.74l-1 .58c-2.13-7.63.84-16.05.88-16.17.14-.4.15-.8.05-1.18.1-.42.1-.88-.1-1.3-3.37-7.6-.43-16.23-.02-17.36l2.12-1.08c.7-.37 1.14-1.14 1.07-1.95-.07-.8-.62-1.5-1.4-1.73l-25-8.02c-1.04-.34-2.16.24-2.5 1.3-.34 1.04.24 2.17 1.3 2.5l20.36 6.54-27.94 14.42-51.1-16.13 31.38-13.57 5.3 1.7c1.04.34 2.17-.24 2.5-1.3.34-1.05-.23-2.17-1.3-2.5l-6-1.93c-.45-.15-.95-.13-1.4.06l-37 16c-.17.08-.33.2-.47.3-.02.02-.04.03-.06.05-.13.12-.24.26-.34.4-.02.04-.03.07-.05.1-.03.04-.06.08-.08.12-.1.2-2.2 4.58-2.2 10.88 0 4.7 1.12 7.74 1.82 9.17-.6 1.8-1.82 6.03-1.82 10.83 0 6.42 2.1 9.75 2.34 10.1.23.36.57.63.97.78l56.73 20.9c.12.06.25.12.4.16.18.06.38.1.57.1.35 0 .7-.1 1-.28l29.07-16.74c.25 0 .5-.06.74-.16.4-.17.7-.45.9-.77l2.3-1.34c.96-.55 1.28-1.77.73-2.73zm-86.63-26.4c.28.84 1.06 1.37 1.9 1.37.2 0 .42-.03.63-.1 1.05-.35 1.62-1.48 1.27-2.53-1.17-3.5-.33-6.13.26-7.38L-222-93.4c-.48 1.3-1.7 5.28-.74 10.72.17.98 1.02 1.66 1.97 1.66.12 0 .23 0 .35-.03 1.1-.2 1.8-1.23 1.62-2.3-.9-5.14.54-8.65.62-8.84l4.54 1.43c-.62 1.9-1.36 4.93-1.36 8.7 0 3.22.4 5.85.86 7.82l-52.46-18.4c-.48-1.03-1.4-3.5-1.4-7.38 0-3.26.67-5.94 1.2-7.53l4.13 1.3c-.85 2.05-1.67 5.52-.23 9.86zm52.97 43.47c-.32-1.1-.66-2.6-.87-4.48l21.76-11.86c.97-.53 1.32-1.75.8-2.72-.53-.97-1.75-1.32-2.72-.8l-20 10.92c.12-3.77 1.06-6.58 1.5-7.7l25.4-13.6c-.77 3.83-1.3 9.6.5 15.06l-26.37 15.18zm25.25-46.52l-14.17 6.6c-1 .47-1.43 1.66-.96 2.67.33.72 1.05 1.15 1.8 1.15.28 0 .57-.06.85-.2l12.44-5.8c.14 2.27.6 4.65 1.53 7-.2.03-.4.08-.6.17-.06.02-.12.04-.17.07l-25.97 13.9c-.5-1.7-1.1-4.5-1.1-8.17 0-4.18 1.06-7.3 1.55-8.52l25.4-13.1c-.26 1.23-.5 2.66-.63 4.23zM-268-80c0-3.4.72-6.55 1.27-8.44l4.84 1.7c-.8 1.33-2.94 5.58-1 11.4.28.84 1.06 1.37 1.9 1.37.2 0 .42-.03.63-.1 1.05-.35 1.62-1.5 1.27-2.53-1.6-4.84.6-8.02.7-8.2.15-.18.25-.4.3-.6l36.23 12.7c-.3.72-1.93 5-.87 11.07.17.97 1.02 1.66 1.97 1.66.12 0 .23 0 .35-.03 1.1-.2 1.8-1.23 1.62-2.32-.9-5.2.6-8.75.63-8.84.03-.07.04-.14.07-.2l4.5 1.56c-.64 1.9-1.4 4.96-1.4 8.8 0 3.15.4 5.74.84 7.7l-52.44-19.3c-.47-1.03-1.4-3.5-1.4-7.4z" class="st0"/><circle cx="-205" cy="-87" r="2" class="st0"/><circle cx="-218" cy="-122" r="2" class="st0"/><path d="M-466-272h-58c-2.2 0-4 1.8-4 4v76c0 2.2 1.8 4 4 4h33v10c0 .74.4 1.42 1.06 1.76.65.35 1.44.3 2.05-.1l4.9-3.26 4.9 3.26c.33.23.7.34 1.1.34.32 0 .65-.08.94-.24.65-.34 1.06-1.02 1.06-1.76v-10h9c2.2 0 4-1.8 4-4v-50c0-1.1-.9-2-2-2s-2 .9-2 2v50h-7.7c4.04-2.9 6.7-7.64 6.7-13 0-7.95-5.83-14.54-13.43-15.77.27-.34.43-.77.43-1.23 0-1.1-.9-2-2-2h-30c-1.1 0-2 .9-2 2s.9 2 2 2h23.5c-5.2 1.92-9.15 6.45-10.2 12H-512c-1.1 0-2 .9-2 2s.9 2 2 2h13.05c.3 4.94 2.86 9.28 6.66 12H-524v-76h58v2c0 1.1.9 2 2 2s2-.9 2-2v-2c0-2.2-1.8-4-4-4zm-15.9 88.34c-.66-.45-1.54-.45-2.2 0l-2.9 1.92v-7.8c1.28.35 2.62.54 4 .54s2.72-.2 4-.53v7.8l-2.9-1.93zM-495-205c0-6.62 5.38-12 12-12s12 5.38 12 12-5.38 12-12 12-12-5.38-12-12zM-476-238c0-1.1-.9-2-2-2h-34c-1.1 0-2 .9-2 2s.9 2 2 2h34c1.1 0 2-.9 2-2zM-512-252h24c1.1 0 2-.9 2-2s-.9-2-2-2h-24c-1.1 0-2 .9-2 2s.9 2 2 2zM-512-232c-1.1 0-2 .9-2 2s.9 2 2 2h30c1.1 0 2-.9 2-2s-.9-2-2-2h-30zM-483-197c4.4 0 8-3.6 8-8 0-1.1-.9-2-2-2s-2 .9-2 2c0 2.2-1.8 4-4 4s-4-1.8-4-4 1.8-4 4-4c1.1 0 2-.9 2-2s-.9-2-2-2c-4.4 0-8 3.6-8 8s3.6 8 8 8z" class="st0"/><circle cx="-464" cy="-258" r="2" class="st0"/><circle cx="-505" cy="168" r="2" class="st0"/><path d="M-448.6 161.6l-25-25c-.77-.8-2.03-.8-2.8 0l-10.6 10.57-9.83 9.83.12.12-3.7 3.7c-.8.78-.8 2.04 0 2.82.38.4.9.6 1.4.6s1.02-.2 1.4-.6l3.7-3.7 4.26 4.25-38.43 38.42c-.37-.03-.75-.04-1.13.04 0 0-1.46.24-2.42-.73l-2.13-2.14 17.17-17.4c.78-.78.77-2.05 0-2.82-.8-.78-2.07-.77-2.84 0L-536.6 197c-.1.1-.16.2-.25.3-.4.3-.72.75-.8 1.3l-5.32 30.07c-.1.64.1 1.3.56 1.76.36.4.87.6 1.4.6.12 0 .23 0 .35-.03l30.07-5.3c.56-.1 1.02-.42 1.3-.86.1-.07.2-.13.3-.22l39.86-39.87.12.13 9.83-9.83 10.58-10.6c.8-.77.8-2.03 0-2.8zm-80.23 45.05c.1 1.13.58 4.3 3.22 6.96 2.54 2.55 5.57 3.1 6.8 3.2.04.07.1.13.14.2-.13 1.4.16 3.7 1.9 5.45l.2.2-10.16 1.8-9.73-9.73 1.8-10.16.2.2c1.8 1.8 4.2 2.05 5.62 1.9zm-8.47 12.88l5.77 5.77-7 1.23 1.23-7zm25.5 2.22l-2.13-2.13c-.97-.96-.74-2.4-.73-2.42.07-.38.07-.75.04-1.12l33.03-32.66c.8-.77.8-2.04.02-2.83s-2.04-.8-2.83-.02L-517.2 213c-.33-.1-.66-.15-1-.15-.12 0-2.58-.07-4.58-2.07-2-2-2.06-4.46-2.07-4.55 0-.35-.06-.7-.15-1.02l38.2-38.18 14.86 14.86-39.87 39.87zm42.8-42.58L-491.17 157l4.17-4.17 22.17 22.17-4.17 4.17zm7-7l-11.1-11.08-11.07-11.1 9.17-9.17 22.17 22.17-9.17 9.17zM-476.4 147.6c-.8.77-.8 2.03 0 2.8l5 5c.38.4.9.6 1.4.6s1.02-.2 1.4-.6c.8-.77.8-2.03 0-2.8l-5-5c-.77-.8-2.03-.8-2.8 0zM-314 14h-6v-3c0-1.1-.9-2-2-2-8.98 0-12.85-1.27-16.26-2.38C-340.8 5.8-343.2 5-347 5c-5.78 0-10.84 2.45-13 3.67-2.16-1.22-7.22-3.67-13-3.67-3.8 0-6.2.8-8.74 1.62C-385.14 7.72-389.02 9-398 9c-1.1 0-2 .9-2 2v3h-6c-1.1 0-2 .9-2 2v70c0 .55.23 1.07.62 1.45.4.38.93.58 1.48.55l38.1-1.96 1.4 1.37c.36.4.87.6 1.4.6h10c.53 0 1.04-.2 1.4-.6l1.4-1.36 38.1 1.96c.03 0 .07 0 .1 0 .5 0 1-.2 1.38-.55.4-.38.62-.9.62-1.45V16c0-1.1-.9-2-2-2zm-10 63.97c-5.78-.2-9.54-1.27-12.9-2.23-3.15-.9-6.13-1.74-10.1-1.74-4.4 0-8.4 1.42-11 2.64v-64.5c.85-.48 2.26-1.2 4-1.82V49c0 .7.36 1.34.95 1.7.6.37 1.32.4 1.94.1l7-3.5 7.04 4.4c.32.2.7.3 1.06.3.33 0 .67-.08.97-.25.64-.35 1.03-1.02 1.03-1.75v-4.74c.5.1 1.03.2 1.5.32 1.08.24 1.86.42 2.5.42 1.1 0 1.95-.87 1.97-1.96.02-1.1-.87-2-1.96-2.04-.23 0-1.03-.2-1.62-.32-.73-.17-1.55-.35-2.38-.5v-3.92c.5.1 1.03.2 1.5.32 1.08.24 1.86.42 2.5.42 1.1 0 1.95-.87 1.97-1.96.02-1.1-.87-2-1.96-2.04-.23 0-1.03-.2-1.62-.32-.73-.17-1.55-.35-2.38-.5v-3.92c.5.1 1.03.2 1.5.32 1.08.24 1.86.42 2.5.42 1.1 0 1.95-.87 1.97-1.96.02-1.1-.87-2-1.96-2.04-.23 0-1.03-.2-1.62-.32-.73-.17-1.55-.35-2.38-.5v-3.92c.5.1 1.03.2 1.5.32 1.08.24 1.86.42 2.5.42 1.1 0 1.95-.87 1.97-1.96.02-1.1-.87-2-1.96-2.04-.23 0-1.03-.2-1.62-.32-.73-.17-1.55-.35-2.38-.5v-5.23c2.5.52 5.66.93 10 1.03v65zm-15.5-67.55c.48.16.98.32 1.5.48v35.5l-4.94-3.1c-.6-.37-1.33-.4-1.95-.1l-5.1 2.56V9.26c.97-.16 1.97-.26 3-.26 3.16 0 5.07.63 7.5 1.42zm-56.5 2.56c8.24-.2 12.24-1.5 15.5-2.56 2.43-.8 4.34-1.42 7.5-1.42 4.8 0 9.18 2.12 11 3.14v64.5c-2.6-1.22-6.6-2.64-11-2.64-3.97 0-6.95.85-10.1 1.74-3.36.96-7.12 2.02-12.9 2.23v-65zm80 70.9L-352.9 82c-.56-.02-1.1.2-1.5.6l-1.43 1.4h-8.34l-1.42-1.4c-.4-.4-.94-.63-1.5-.6l-36.9 1.9V18h4v62c0 1.1.9 2 2 2 7.5 0 12-1.28 15.98-2.4 3-.86 5.6-1.6 9.02-1.6 6.28 0 11.84 3.63 11.9 3.67.02 0 .05.02.08.04s.05.05.07.06c.07.03.14.05.2.07.1.04.17.07.25.1.1.02.2.03.3.04.07 0 .13.03.2.03.02 0 .04 0 .06 0 .05 0 .1-.02.16-.03.1 0 .23-.03.34-.06.06 0 .12-.03.18-.06.07-.03.14-.04.2-.08.03 0 .05-.04.08-.05.03 0 .06-.02.1-.03.04-.04 5.6-3.67 11.88-3.67 3.4 0 6 .74 9.02 1.6C-334 80.7-329.5 82-322 82c1.1 0 2-.9 2-2V18h4v65.9zM-390 21.58c.08 0 .16 0 .24-.02 4.28-.5 6.93-1.38 9.27-2.14.7-.23 1.37-.45 2.05-.65 1.07-.3 1.68-1.4 1.37-2.47-.3-1.06-1.4-1.67-2.47-1.37-.73.2-1.44.44-2.2.7-2.25.73-4.6 1.5-8.5 1.96-1.08.12-1.87 1.12-1.74 2.2.14 1.03 1 1.78 2 1.78zM-390 29.58c.08 0 .16 0 .24-.02 4.28-.5 6.93-1.38 9.27-2.14 2.43-.8 4.34-1.42 7.5-1.42 1.44 0 2.97.2 4.53.57 1.07.26 2.15-.4 2.4-1.47.27-1.07-.38-2.15-1.46-2.42-1.87-.45-3.7-.68-5.47-.68-3.8 0-6.2.8-8.74 1.62-2.27.74-4.6 1.5-8.5 1.97-1.1.12-1.88 1.12-1.75 2.2.14 1.03 1 1.78 2 1.78zM-390 37.58c.08 0 .16 0 .24-.02 4.28-.5 6.93-1.38 9.27-2.14 2.43-.8 4.34-1.42 7.5-1.42 1.44 0 2.97.2 4.53.57 1.07.26 2.15-.4 2.4-1.47.27-1.07-.38-2.15-1.46-2.42-1.87-.45-3.7-.68-5.47-.68-3.8 0-6.2.8-8.74 1.62-2.27.74-4.6 1.5-8.5 1.97-1.1.12-1.88 1.12-1.75 2.2.14 1.03 1 1.78 2 1.78zM-390 45.58c.08 0 .16 0 .24-.02 4.28-.5 6.93-1.38 9.27-2.14 2.43-.8 4.34-1.42 7.5-1.42 1.44 0 2.97.2 4.53.57 1.07.26 2.15-.4 2.4-1.47.27-1.07-.38-2.15-1.46-2.42-1.87-.45-3.7-.68-5.47-.68-3.8 0-6.2.8-8.74 1.62-2.27.74-4.6 1.5-8.5 1.97-1.1.12-1.88 1.12-1.75 2.2.14 1.03 1 1.78 2 1.78zM-390 53.58c.08 0 .16 0 .24-.02 4.28-.5 6.93-1.38 9.27-2.14 2.43-.8 4.34-1.42 7.5-1.42 1.44 0 2.96.2 4.53.57 1.07.27 2.15-.4 2.4-1.47.27-1.07-.38-2.15-1.46-2.4-1.87-.47-3.7-.7-5.47-.7-3.8 0-6.2.8-8.74 1.62-2.27.74-4.6 1.5-8.5 1.97-1.1.12-1.88 1.12-1.75 2.2.14 1.03 1 1.78 2 1.78zM-390 61.58c.08 0 .16 0 .24-.02 4.28-.5 6.93-1.38 9.27-2.14 2.43-.8 4.34-1.42 7.5-1.42 1.44 0 2.96.2 4.53.57 1.07.26 2.15-.4 2.4-1.47.27-1.07-.38-2.15-1.46-2.4-1.87-.47-3.7-.7-5.47-.7-3.8 0-6.2.8-8.74 1.62-2.27.74-4.6 1.5-8.5 1.97-1.1.12-1.88 1.12-1.75 2.2.14 1.03 1 1.78 2 1.78zM-390 69.58c.08 0 .16 0 .24-.02 4.28-.5 6.93-1.38 9.27-2.14 2.43-.8 4.34-1.42 7.5-1.42 1.44 0 2.96.2 4.53.57 1.07.27 2.15-.4 2.4-1.47.27-1.07-.38-2.15-1.46-2.4-1.87-.47-3.7-.7-5.47-.7-3.8 0-6.2.8-8.74 1.62-2.27.74-4.6 1.5-8.5 1.97-1.1.12-1.88 1.12-1.75 2.2.14 1.03 1 1.78 2 1.78zM-344 28c1.1 0 2-.9 2-2V14c0-1.1-.9-2-2-2s-2 .9-2 2v12c0 1.1.9 2 2 2z" class="st0"/><circle cx="-344" cy="34" r="2" class="st0"/><path d="M-178 14h-6v-3c0-1.1-.9-2-2-2-8.98 0-12.85-1.27-16.26-2.38C-204.8 5.8-207.2 5-211 5c-5.78 0-10.84 2.45-13 3.67-2.16-1.22-7.22-3.67-13-3.67-3.8 0-6.2.8-8.74 1.62C-249.14 7.72-253.02 9-262 9c-1.1 0-2 .9-2 2v3h-6c-1.1 0-2 .9-2 2v70c0 .55.23 1.07.62 1.45.4.38.94.58 1.48.55l38.1-1.96 1.4 1.37c.36.4.87.6 1.4.6h10c.53 0 1.04-.2 1.4-.6l1.4-1.36 38.1 1.96c.03 0 .07 0 .1 0 .5 0 1-.2 1.38-.55.4-.38.62-.9.62-1.45V16c0-1.1-.9-2-2-2zm-10 63.97c-5.78-.2-9.54-1.27-12.9-2.23-3.15-.9-6.13-1.74-10.1-1.74-4.4 0-8.4 1.42-11 2.64v-64.5c.85-.48 2.26-1.2 4-1.82V49c0 .7.36 1.34.95 1.7.6.37 1.32.4 1.94.1l7-3.5 7.04 4.4c.32.2.7.3 1.06.3.33 0 .67-.08.97-.25.64-.35 1.03-1.02 1.03-1.75v-8.4c1.43.3 2.5.4 4 .4 1.1 0 2-.9 2-2s-.9-2-2-2c-1.42 0-2.28-.08-4-.53v-2.83c1.2.26 2.44.46 3.76.62.08 0 .16 0 .24 0 .5 0 .96-.16 1.33-.5.43-.37.67-.9.67-1.5v-13.4c0-1.02-.76-1.87-1.76-2-1.02-.12-2.44-.65-3.6-1.07-.22-.1-.42-.17-.64-.25v-4.6c2.5.52 5.66.93 10 1.03v65zm-10-57.16c.65.25 1.32.48 2 .67v9.5c-.68-.13-1.34-.27-2-.42V20.8zm-5.5-10.38c.48.16.98.32 1.5.48v35.5l-4.94-3.1c-.6-.37-1.33-.4-1.95-.1l-5.1 2.56V9.26c.97-.16 1.97-.26 3-.26 3.16 0 5.07.63 7.5 1.42zm-56.5 2.56c8.24-.2 12.24-1.5 15.5-2.56 2.43-.8 4.34-1.42 7.5-1.42 4.8 0 9.18 2.12 11 3.14v64.5c-2.6-1.22-6.6-2.64-11-2.64-3.97 0-6.95.85-10.1 1.74-3.36.96-7.12 2.02-12.9 2.23v-65zm80 70.9L-216.9 82c-.56-.02-1.1.2-1.5.6l-1.43 1.4h-8.34l-1.42-1.4c-.4-.4-.94-.63-1.5-.6l-36.9 1.9V18h4v62c0 1.1.9 2 2 2 7.5 0 12-1.28 15.98-2.4 3-.86 5.6-1.6 9.02-1.6 6.28 0 11.84 3.63 11.9 3.67.02 0 .05.02.08.04s.05.05.07.06c.07.03.14.05.2.07.1.04.17.07.25.1.1.02.2.03.3.04.07 0 .13.03.2.03.02 0 .04 0 .06 0 .05 0 .1-.02.16-.03.12 0 .23-.03.34-.06.06 0 .12-.03.18-.06.07-.03.14-.04.2-.08.03 0 .05-.04.08-.05.03 0 .06-.02.1-.03.04-.04 5.6-3.67 11.88-3.67 3.4 0 6 .74 9.02 1.6C-198 80.7-193.5 82-186 82c1.1 0 2-.9 2-2V18h4v65.9zM-243.55 35.35c-.73.2-1.45.45-2.2.7-2.26.73-4.6 1.5-8.5 1.96-1.08.15-1.87 1.14-1.74 2.24.14 1 1 1.76 2 1.76.08 0 .16 0 .24 0 4.27-.53 6.92-1.4 9.26-2.16.7-.23 1.37-.45 2.05-.64 1.07-.3 1.68-1.42 1.37-2.48-.3-1.06-1.4-1.68-2.47-1.37zM-254 35.27c.08 0 .16 0 .24 0 4.28-.52 6.93-1.4 9.27-2.15 2.43-.8 4.34-1.42 7.5-1.42 1.44 0 2.97.2 4.53.57.6.14 1.22 0 1.7-.37.5-.38.77-.96.77-1.57V16.9c0-.92-.63-1.72-1.53-1.94-1.87-.46-3.7-.7-5.47-.7-3.8 0-6.2.8-8.74 1.63-2.27.73-4.6 1.5-8.5 1.97-1 .12-1.76.97-1.76 1.98v13.42c0 .58.24 1.12.67 1.5.37.33.84.5 1.33.5zm2-13.68c3.28-.52 5.5-1.25 7.5-1.9 2.43-.8 4.34-1.43 7.5-1.43.97 0 1.97.1 3 .26v9.38c-1.02-.13-2.02-.2-3-.2-3.8 0-6.2.78-8.74 1.6-1.8.6-3.64 1.2-6.26 1.66V21.6zM-243.55 65.35c-.73.2-1.45.45-2.2.7-2.26.73-4.6 1.5-8.5 1.96-1.08.15-1.87 1.14-1.74 2.24.14 1 1 1.76 2 1.76.08 0 .16 0 .24 0 4.27-.53 6.92-1.4 9.26-2.16.7-.23 1.37-.45 2.05-.64 1.07-.3 1.68-1.42 1.37-2.48-.3-1.06-1.4-1.67-2.47-1.37zM-254 65.27c.08 0 .16 0 .24 0 4.28-.52 6.93-1.4 9.27-2.15 2.43-.8 4.34-1.42 7.5-1.42 1.44 0 2.97.2 4.53.57.6.14 1.22 0 1.7-.37.5-.38.77-.96.77-1.57V46.9c0-.92-.63-1.72-1.53-1.94-1.87-.46-3.7-.7-5.47-.7-3.8 0-6.2.8-8.74 1.63-2.27.73-4.6 1.5-8.5 1.97-1 .12-1.76.97-1.76 1.98v13.42c0 .58.24 1.12.67 1.5.37.33.84.5 1.33.5zm2-13.68c3.28-.52 5.5-1.25 7.5-1.9 2.43-.8 4.34-1.43 7.5-1.43.97 0 1.97.1 3 .26v9.38c-1.02-.13-2.02-.2-3-.2-3.8 0-6.2.78-8.74 1.6-1.8.6-3.64 1.2-6.26 1.66V51.6zM-208 28c1.1 0 2-.9 2-2V14c0-1.1-.9-2-2-2s-2 .9-2 2v12c0 1.1.9 2 2 2z" class="st0"/><circle cx="-208" cy="34" r="2" class="st0"/><path d="M-456 11h-6c-1.1 0-2 .9-2 2s.9 2 2 2h6v60h-10v-.16c4.77-2.78 8-7.93 8-13.84 0-2.96-.82-5.72-2.22-8.1.13-.27.22-.57.22-.9V23c0-2.2-1.8-4-4-4h-64c-2.2 0-4 1.8-4 4v44c0 2.2 1.8 4 4 4h41c.17 0 .33-.03.48-.06 1.25 1.56 2.78 2.88 4.52 3.9V75h-5c-1.1 0-2 .9-2 2s.9 2 2 2h5v7c0 .74.4 1.42 1.06 1.76.65.35 1.44.3 2.05-.1l4.9-3.26 4.9 3.26c.33.23.7.34 1.1.34.32 0 .65-.08.94-.24.65-.34 1.06-1.02 1.06-1.76v-7h10c2.2 0 4-1.8 4-4V15c0-2.2-1.8-4-4-4zm-72 56V23h64v25.53c-2.74-2.2-6.22-3.53-10-3.53-8.82 0-16 7.18-16 16 0 2.12.42 4.15 1.18 6H-528zm42-6c0-6.62 5.38-12 12-12s12 5.38 12 12-5.38 12-12 12-12-5.38-12-12zm16 21.26l-2.9-1.92c-.66-.45-1.54-.45-2.2 0l-2.9 1.92v-5.79c1.28.34 2.62.53 4 .53s2.72-.2 4-.53v5.8zM-495 75h-41V15h44c1.1 0 2-.9 2-2s-.9-2-2-2h-44c-2.2 0-4 1.8-4 4v60c0 2.2 1.8 4 4 4h41c1.1 0 2-.9 2-2s-.9-2-2-2zM-518 35h20c1.1 0 2-.9 2-2s-.9-2-2-2h-20c-1.1 0-2 .9-2 2s.9 2 2 2zM-518 43h40c1.1 0 2-.9 2-2s-.9-2-2-2h-40c-1.1 0-2 .9-2 2s.9 2 2 2zM-494 47h-24c-1.1 0-2 .9-2 2s.9 2 2 2h24c1.1 0 2-.9 2-2s-.9-2-2-2zM-466 61c0-1.1-.9-2-2-2s-2 .9-2 2c0 2.2-1.8 4-4 4s-4-1.8-4-4 1.8-4 4-4c1.1 0 2-.9 2-2s-.9-2-2-2c-4.4 0-8 3.6-8 8s3.6 8 8 8 8-3.6 8-8z" class="st0"/><circle cx="-470" cy="13" r="2" class="st0"/><circle cx="-490" cy="33" r="2" class="st0"/><path d="M-318-256h-22v-4c0-2.2-1.8-4-4-4h-32c-2.2 0-4 1.8-4 4v4h-22c-3.3 0-6 2.7-6 6v60c0 3.3 2.7 6 6 6h84c3.3 0 6-2.7 6-6v-32c0-1.1-.9-2-2-2s-2 .9-2 2v14h-4v-22c0-1.1-.9-2-2-2s-2 .9-2 2v22h-26v-2c0-2.2-1.8-4-4-4h-12c-2.2 0-4 1.8-4 4v2h-26v-6c0-1.1-.9-2-2-2s-2 .9-2 2v6h-4v-42c0-1.1.9-2 2-2h2v22c0 1.1.9 2 2 2s2-.9 2-2v-22h72v6c0 1.1.9 2 2 2s2-.9 2-2v-6h2c1.1 0 2 .9 2 2v4c0 1.1.9 2 2 2s2-.9 2-2v-4c0-3.3-2.7-6-6-6zm-36 58v2-2zm-12-6h12v6h-12v-6zm0-6h12v2h-12v-2zm-37.93 6h3.93v2c0 1.1.9 2 2 2s2-.9 2-2v-2h26v6c0 2.2 1.8 4 4 4h12c2.2 0 4-1.8 4-4v-6h26v10c0 1.1.9 2 2 2s2-.9 2-2v-10h3.93c.04.5.07 1.2.07 2v12c0 1.1-.9 2-2 2h-84c-1.1 0-2-.9-2-2v-12c0-.8.03-1.5.07-2zm27.93-52v-4h4v4h-4zm8 0v-4h16v4h-16zm20 0v-4h4v4h-4zM-390-248c-1.1 0-2 .9-2 2s.9 2 2 2h23c1.1 0 2-.9 2-2s-.9-2-2-2h-23z" class="st0"/><circle cx="-398" cy="-194" r="2" class="st0"/><circle cx="-314" cy="-238" r="2" class="st0"/><path d="M-451.4 432.12c-.76-1.9-2.85-3.1-4.87-2.8l-32.02 4.7c-.26.04-.5.13-.72.26-2.18-.8-4.52-1.28-6.98-1.28s-4.8.47-6.98 1.28c-.22-.13-.46-.22-.73-.26l-32.03-4.7c-2.02-.3-4.14.96-4.83 2.88-.14.38-3.44 9.55-3.44 18.8 0 10.35 3.18 16.83 3.32 17.1.78 1.57 2.55 2.62 4.3 2.64l1.44 5.75c.23.9 1.04 1.5 1.94 1.5.13 0 .26 0 .4-.04l22.6-4.52V485c0 .7.36 1.34.95 1.7.6.36 1.32.4 1.94.1l11.1-5.56 11.1 5.55c.3.13.6.2.9.2.37 0 .73-.1 1.05-.3.6-.36.95-1 .95-1.7v-11.88l22.58 4.84c.14.03.28.04.42.04.9 0 1.7-.6 1.94-1.5l1.44-5.76c1.78-.02 3.53-1.12 4.26-2.75.14-.32 3.36-7.68 3.36-17 0-10.27-3.26-18.54-3.4-18.88zM-480 453c0 8.82-7.18 16-16 16s-16-7.18-16-16 7.18-16 16-16 16 7.18 16 16zm-60-2c0-8.53 3.16-17.35 3.2-17.44.05-.14.34-.3.5-.3l27.86 4.1c-4.6 3.68-7.56 9.3-7.56 15.64 0 3.82 1.1 7.38 2.96 10.4l-20.8 2.98c-.46-.33-1.05-.47-1.64-.32-.43.1-.78.34-1.04.65-.23-.05-.5-.22-.6-.38 0-.06-2.88-5.9-2.88-15.32zm8.48 22.67l-.86-3.45 22.17-3.17c.1.1.2.2.3.3-.05.2-.1.43-.1.65v1.36l-21.52 4.3zm36.4 3.54c-.55-.27-1.2-.27-1.77 0l-9.1 4.56V470.3c.65.37 1.3.72 2 1.02V475c0 1.1.9 2 2 2s2-.9 2-2v-2.4c1.3.26 2.63.4 4 .4 3.64 0 7.05-1 10-2.7v11.46l-9.1-4.55zm13.12-8.17V468c0-.22-.05-.44-.1-.64.1-.1.2-.2.3-.3l22.18 3.16-.85 3.42-21.53-4.6zm26.98-2.67c-.05.13-.27.28-.47.34-.25-.3-.6-.54-1.02-.64-.6-.15-1.18 0-1.64.32l-20.8-2.97c1.87-3.02 2.96-6.58 2.96-10.4 0-6.33-2.96-11.96-7.56-15.63l27.87-4.1c.17-.02.52.17.6.33.02.08 3.1 7.9 3.1 17.4 0 8.43-3 15.3-3.02 15.36zM-496 465c6.62 0 12-5.38 12-12 0-1.1-.9-2-2-2s-2 .9-2 2c0 4.4-3.6 8-8 8s-8-3.6-8-8 3.6-8 8-8c1.1 0 2-.9 2-2s-.9-2-2-2c-6.62 0-12 5.38-12 12s5.38 12 12 12z" class="st0"/><circle cx="-489" cy="446" r="2" class="st0"/><path d="M-44.3-99.25c-.02 0-.03-.02-.04-.03.1-.52.15-1.06.15-1.62.04-4.98-3.56-11.7-9.4-17.5-.77-.8-2.03-.8-2.8 0-.8.77-.8 2.03 0 2.8 4.93 4.96 8.23 10.85 8.2 14.68 0 .86-.17 1.56-.52 2.1l-27.26 17.44c-.25-.1-.5-.2-.78-.26-.07 0-7.08-1.54-11.7-6.02-5.54-5.43-6.8-10.9-6.82-10.96-.1-.43-.26-.83-.48-1.2l12.47-20.1c1.55 4.88 5.36 10.7 10.56 16 2.5 2.5 7.64 5.6 9.85 6.7.3.15.6.22.9.22.73 0 1.44-.4 1.8-1.1.48-1 .08-2.2-.9-2.7-2.06-1.02-6.75-3.9-8.8-5.95-6-6.1-10.2-13.3-10.15-17.56 0-.4.05-.72.12-1.02l.86-1.38c.97-.52 4.15-1.02 7.18.5 1 .48 2.2.08 2.7-.9.48-1 .08-2.2-.9-2.7-3.1-1.53-6.6-1.72-9.17-1.06-.88-.35-1.9-.03-2.43.8l-.4.67c-.68.68-1.18 1.5-1.5 2.42l-15.5 24.96c-.22-.02-.43-.04-.65-.03l-14.36.78c-1.08.06-2.06.53-2.77 1.34s-1.06 1.83-.98 2.9c.03.5.77 9.64 6.95 19.27l-20.76 30.64c-.54.8-.43 1.87.26 2.55.4.38.9.57 1.4.57.4 0 .8-.12 1.16-.37l29.78-21.13c8.63 5.74 17.27 6.28 20.1 6.28.55 0 .85-.02.85-.02 2.1-.14 3.85-1.9 3.97-4l.8-13.92c.02-.38-.03-.74-.1-1.1l26-16.62c.4-.07.78-.24 1.1-.54.1-.12.22-.25.33-.38l1.08-.68c.93-.6 1.2-1.84.6-2.77zm-77.85 45.23l13.72-20.25c1.16 1.48 2.47 2.96 3.94 4.4.7.65 1.38 1.27 2.07 1.85l-19.72 14zm44.03-9.46c0 .1-.15.24-.23.25-.03 0-.25 0-.6 0-2.28 0-8.8-.38-15.72-4.26-.2-.16-.4-.3-.66-.38-.7-.4-1.4-.86-2.1-1.36-.26-.3-.58-.53-.93-.65-1.13-.83-2.25-1.78-3.34-2.84-11-10.75-12.15-24.44-12.2-24.54l14.37-.77c.12 0 .32.16.34.26.07.28 1.48 6.68 7.96 13 5.45 5.32 13.32 7 13.66 7.08.1.02.26.22.25.33l-.8 13.92zM-105.02-93.3c-.16-1.08-1.18-1.84-2.26-1.68-1.1.16-1.86 1.17-1.7 2.26.04.32 1.18 7.75 8.57 15.13.38.4.9.6 1.4.6s1.02-.2 1.4-.6c.8-.77.8-2.03 0-2.8-6.35-6.38-7.4-12.78-7.42-12.9z" class="st0"/><circle cx="-93" cy="-74" r="2" class="st0"/><circle cx="-65" cy="-125" r="2" class="st0"/><path d="M-368 136h-4c-.73 0-1.4.2-2 .56-.6-.35-1.27-.56-2-.56h-16c-2.2 0-4 1.8-4 4v88c0 2.2 1.8 4 4 4h16c.73 0 1.4-.2 2-.56.6.35 1.27.56 2 .56h4c2.2 0 4-1.8 4-4v-62c0-1.1-.9-2-2-2s-2 .9-2 2v62h-4v-88h4v2c0 1.1.9 2 2 2s2-.9 2-2v-2c0-2.2-1.8-4-4-4zm-8 92h-16v-8h2c1.1 0 2-.9 2-2s-.9-2-2-2h-2v-4h6c1.1 0 2-.9 2-2s-.9-2-2-2h-6v-4h2c1.1 0 2-.9 2-2s-.9-2-2-2h-2v-4h6c1.1 0 2-.9 2-2s-.9-2-2-2h-6v-4h2c1.1 0 2-.9 2-2s-.9-2-2-2h-2v-4h6c1.1 0 2-.9 2-2s-.9-2-2-2h-6v-4h2c1.1 0 2-.9 2-2s-.9-2-2-2h-2v-4h6c1.1 0 2-.9 2-2s-.9-2-2-2h-6v-4h2c1.1 0 2-.9 2-2s-.9-2-2-2h-2v-4h6c1.1 0 2-.9 2-2s-.9-2-2-2h-6v-4h16v88zm0 0v2-2z" class="st0"/><circle cx="-326" cy="170" r="2" class="st0"/><circle cx="-366" cy="150" r="2" class="st0"/><path d="M-326 136h-28c-1.1 0-2 .9-2 2v71c0 .2.03.37.06.56-.12.53-.04 1.1.3 1.6l14 20c.38.52 1 .84 1.64.84s1.26-.32 1.64-.85l14-20c.34-.48.42-1.06.3-1.6.03-.18.06-.36.06-.55v-23c0-1.1-.9-2-2-2s-2 .9-2 2v23h-2c-.84 0-1.22-.45-1.23-.45-.2-.32-.48-.6-.77-.82V170c0-1.1-.9-2-2-2s-2 .9-2 2v37.38c-.3.17-.56.35-.8.6-.05.04-1.14 1.02-3.2 1.02-2.06 0-3.15-.98-3.17-1-.25-.25-.53-.44-.83-.6V160h16v2c0 1.1.9 2 2 2s2-.9 2-2v-24c0-1.1-.9-2-2-2zm-26 4h24v8h-24v-8zm12 86.5l-3.16-4.5h6.32l-3.16 4.5zm0-13.5c3.04 0 4.97-1.3 5.7-1.9.5.58 1.73 1.7 3.78 1.87l-3.52 5.03h-11.92l-3.52-5.03c2.05-.17 3.28-1.3 3.78-1.87.73.6 2.66 1.9 5.7 1.9zm-8-5.28c-.28.23-.53.48-.73.78-.04.05-.43.5-1.27.5h-2v-49h4v47.72zm-4-51.72v-4h24v4h-24zM-190 144h-12c-1.1 0-2 .9-2 2s.9 2 2 2h12c3.3 0 6 2.7 6 6v48c0 3.3-2.7 6-6 6h-33.5c-.98 0-1.92.6-2.42 1.1L-236 219.16l-10.08-10.08c-.5-.5-1.44-1.1-2.42-1.1h-9.5c-3.3 0-6-2.7-6-6v-48c0-3.3 2.7-6 6-6h28c1.1 0 2-.9 2-2s-.9-2-2-2h-28c-5.5 0-10 4.5-10 10v48c0 5.5 4.5 10 10 10h9.17l10.92 10.9c.5.52 1.17.8 1.9.8s1.4-.28 1.92-.8l10.9-10.9H-190c5.5 0 10-4.5 10-10v-48c0-5.5-4.5-10-10-10zM-248 166c0 1.1.9 2 2 2h20c1.1 0 2-.9 2-2s-.9-2-2-2h-20c-1.1 0-2 .9-2 2zM-202 172h-44c-1.1 0-2 .9-2 2s.9 2 2 2h44c1.1 0 2-.9 2-2s-.9-2-2-2zM-208 182c0-1.1-.9-2-2-2h-36c-1.1 0-2 .9-2 2s.9 2 2 2h36c1.1 0 2-.9 2-2zM-246 188c-1.1 0-2 .9-2 2s.9 2 2 2h32c1.1 0 2-.9 2-2s-.9-2-2-2h-32z" class="st0"/><circle cx="-202" cy="182" r="2" class="st0"/><circle cx="-210" cy="146" r="2" class="st0"/><path d="M-320-122h-4c0-3.3-2.7-6-6-6h-10v-4c0-2.2-1.8-4-4-4h-32c-2.2 0-4 1.8-4 4v4h-10c-3.3 0-6 2.7-6 6h-4c-2.2 0-4 1.8-4 4v72c0 2.2 1.8 4 4 4h8c.18 0 .35-.03.52-.08.68 1.24 1.98 2.08 3.48 2.08h56c1.5 0 2.8-.84 3.48-2.08.17.05.34.08.52.08h8c2.2 0 4-1.8 4-4v-36c0-1.1-.9-2-2-2s-2 .9-2 2v36h-8v-16c0-.12-.02-.22-.03-.34 2.34-.8 4.03-3.04 4.03-5.66v-50h4v10c0 1.1.9 2 2 2s2-.9 2-2v-10c0-2.2-1.8-4-4-4zm-26-10h2v4h-4v-4h2zm-6 0v4h-16v-4h16zm-24 0h4v4h-4v-4zm-24 86v-72h4v50c0 2.62 1.7 4.85 4.03 5.66 0 .12-.03.22-.03.34v16h-8zm68 2h-56v-18h18v6c0 2.2 1.8 4 4 4h12c2.2 0 4-1.8 4-4v-6h18v18zm-22-12v2-2zm0 0h-12v-14h12v14zm26-12c0 1.1-.9 2-2 2h-2v-36c0-1.1-.9-2-2-2s-2 .9-2 2v36h-14v-4c0-2.2-1.8-4-4-4h-12c-2.2 0-4 1.8-4 4v4h-14v-6c0-1.1-.9-2-2-2s-2 .9-2 2v6h-2c-1.1 0-2-.9-2-2v-54c0-1.1.9-2 2-2h2v22c0 1.1.9 2 2 2s2-.9 2-2v-22h48v6c0 1.1.9 2 2 2s2-.9 2-2v-6h2c1.1 0 2 .9 2 2v54z" class="st0"/><circle cx="-386" cy="-94" r="2" class="st0"/><circle cx="-318" cy="-100" r="2" class="st0"/><path d="M-361-120h-17c-1.1 0-2 .9-2 2s.9 2 2 2h17c1.1 0 2-.9 2-2s-.9-2-2-2zM88 424c1.1 0 2-.9 2-2v-2c0-2.2-1.8-4-4-4h-4c0-2.2-1.8-4-4-4h-4c0-2.2-1.8-4-4-4H14c-2.2 0-4 1.8-4 4v6c0 1.1.9 2 2 2s2-.9 2-2v-6h56v49.14c-7.88 1-14 7.72-14 15.86 0 5.04 2.35 9.54 6 12.47V491H14v-49c0-1.1-.9-2-2-2s-2 .9-2 2v49c0 2.2 1.8 4 4 4h48v7c0 .7.36 1.34.95 1.7.6.37 1.33.4 1.94.1l7.1-3.56 7.1 3.55c.3.13.6.2.9.2.37 0 .73-.1 1.05-.3.6-.36.95-1 .95-1.7v-7h4c2.2 0 4-1.8 4-4v-61c0-1.1-.9-2-2-2s-2 .9-2 2v39.27c-1-1.83-2.38-3.44-4-4.74V420h4v2c0 1.1.9 2 2 2zm-10 74.76l-5.1-2.55c-.57-.27-1.23-.27-1.8 0l-5.1 2.56v-6.94c1.85.76 3.88 1.18 6 1.18s4.15-.42 6-1.18v6.94zm8-7.76h-4v-1.53c1.62-1.3 3-2.9 4-4.74V491zm-2-14c0 6.62-5.38 12-12 12s-12-5.38-12-12 5.38-12 12-12 12 5.38 12 12zm-10-15.86V416h4v46.18c-1.26-.5-2.6-.87-4-1.04zM28 428h12c1.1 0 2-.9 2-2s-.9-2-2-2H28c-1.1 0-2 .9-2 2s.9 2 2 2zM28 479h7c1.1 0 2-.9 2-2s-.9-2-2-2h-7c-1.1 0-2 .9-2 2s.9 2 2 2zM28 444h28c1.1 0 2-.9 2-2s-.9-2-2-2H28c-1.1 0-2 .9-2 2s.9 2 2 2zM28 452h24c1.1 0 2-.9 2-2s-.9-2-2-2H28c-1.1 0-2 .9-2 2s.9 2 2 2zM28 460h24c1.1 0 2-.9 2-2s-.9-2-2-2H28c-1.1 0-2 .9-2 2s.9 2 2 2zM78 475c-1.1 0-2 .9-2 2 0 2.2-1.8 4-4 4s-4-1.8-4-4 1.8-4 4-4c1.1 0 2-.9 2-2s-.9-2-2-2c-4.4 0-8 3.6-8 8s3.6 8 8 8 8-3.6 8-8c0-1.1-.9-2-2-2z" class="st0"/><circle cx="12" cy="426" r="2" class="st0"/><path d="M88.84 598.92c.75-2.05 1.16-4.2 1.16-6.44 0-4.84-2.94-10.73-6.96-14.15 0-.2 0-.37-.02-.54 0-.22-.02-.43-.02-.64 0-9.4-4.77-15.03-13.48-16.03-1.72-5.37-6.67-9.13-12.3-9.13-4.5 0-7.74 1.5-9.55 4.35-2.1-2.64-5.34-4.35-8.9-4.35-5.3 0-9.72 3.78-10.7 8.8-8.65.46-15.52 7.6-15.52 16.36 0 .72.06 1.4.15 2.1-4.06 3-6.7 7.8-6.7 13.22 0 5.6 2.8 10.53 7.07 13.5-.33 1.28-.52 2.62-.52 4 0 8.95 7.15 16.2 16.03 16.4.1.1.2.16.3.24 1.74 3.7 5.5 5.38 9.9 5.38 3.53 0 6.77-1.36 8.86-3.7 1.3 1.87 3.4 3 6.3 3.47C58.33 636.8 64.8 640 72 640c13.23 0 24-10.77 24-24 0-6.68-2.75-12.73-7.16-17.08zM86 592.48c0 1.27-.17 2.5-.5 3.7-1.95-1.34-4.12-2.4-6.45-3.12.2-.14.4-.3.56-.52.65-.9.44-2.14-.46-2.78-2.33-1.66-3.5-3.57-3.32-5.38.15-1.46 1.15-2.52 2.07-2.92.5-.22 1.22-.37 1.9.14.4.3.86.42 1.32.4 2.82 2.73 4.88 7.04 4.88 10.48zm-30 5.65c-.02-.1-.04-.22-.06-.4-.12-1.1-1.12-1.9-2.2-1.77-1.1.12-1.9 1.1-1.77 2.2.17 1.55.63 2.35 1.23 2.95-.5.65-1 1.32-1.43 2-.6.2-1.2.3-1.77.4v-15.14c.1-.08.2-.18.28-.28 2.56-3.13 6.32-3.43 8.7-2.1 2.7 1.47 3.58 4.6 2.5 8.46-2 .97-3.84 2.22-5.48 3.7zm9.95-6.42c.54-.46 4-3.22 7.9-1.35.03.02.08.03.12.05.52.64 1.17 1.3 1.95 1.93-1.27-.22-2.58-.33-3.92-.33-2.12 0-4.17.28-6.12.8.04-.38.06-.74.07-1.1zM57.23 556c3.38 0 6.5 2.1 8 5.15-.74.3-1.26 1-1.26 1.86 0 .05-.06 4.5-2.64 7.08-1.3 1.3-3 1.92-5.2 1.92-1.1 0-2 .9-2 2s.9 2 2 2c1.76 0 3.35-.3 4.76-.9.7 2.25 3.26 3.78 5.75 4.03.26.02.52.04.77.04 3.05 0 5.36-1.88 5.97-4.95.2-1.08-.5-2.13-1.58-2.35-1.08-.22-2.13.5-2.35 1.57-.1.47-.38 1.9-2.43 1.7-1.4-.13-2.35-1-2.35-1.3 0-.43-.14-.82-.36-1.14 2.32-2.44 3.16-5.66 3.46-7.7 0 0 .02 0 .03 0 7.52.4 11.17 4.38 11.17 12.16 0 .04 0 .07 0 .1-.9-.02-1.8.14-2.7.53-2.43 1.05-4.18 3.48-4.46 6.17-.05.48-.06 1.08.03 1.76-2.74-.2-5.08.73-6.65 1.64-.9-2.28-2.52-3.92-4.3-4.9-3.42-1.9-7.6-1.58-10.92.57v-15.47c.78.35 1.62.58 2.45.67.26.02.52.03.77.03 3.05 0 5.36-1.87 5.97-4.94.2-1.08-.5-2.13-1.58-2.35-1.08-.22-2.13.5-2.35 1.57-.1.47-.37 1.9-2.43 1.7-1.4-.13-2.35-1-2.35-1.3 0-.48-.17-.9-.44-1.24.36-3.97 2.55-5.7 7.17-5.7zm-29.05 8.8c.27 2.04 1.1 5.38 3.48 7.9-.22.32-.35.7-.35 1.13 0 .3-.93 1.18-2.34 1.32-2.05.2-2.34-1.24-2.43-1.7-.22-1.1-1.27-1.8-2.35-1.58-1.1.22-1.8 1.27-1.57 2.35.62 3.07 2.93 4.95 5.98 4.95.25 0 .5-.02.77-.04 2.5-.25 5.04-1.78 5.76-4.04 1.42.6 3 .9 4.76.9 1.1 0 2-.9 2-2s-.9-2-2-2c-7.58 0-7.83-8.08-7.83-9 0-.3-.08-.6-.2-.87.06-.18.1-.36.15-.55.64-3.24 3.5-5.58 6.8-5.58 3.5 0 6.5 2.55 7.1 5.78-.23.33-.37.73-.37 1.16 0 .3-.93 1.18-2.34 1.3-2.05.22-2.33-1.22-2.43-1.7-.22-1.07-1.27-1.78-2.35-1.56-1.1.22-1.8 1.27-1.57 2.35.62 3.07 2.93 4.94 5.98 4.94.25 0 .5 0 .77-.03.83-.1 1.67-.32 2.45-.67V583c-3.25-2.1-7.25-2.43-10.63-.63-1.84.98-3.53 2.68-4.47 5.07-1.58-.94-4-1.95-6.85-1.7.42-2.28-.17-4.36-1.38-5.9-1.56-2-3.9-2.9-6.1-2.58 0-.03-.02-.07-.02-.1 0-6.55 5.1-11.96 11.63-12.36zm10.6 63.2c-2.27 0-5.2-.56-6.36-3.2-.2-.47-.48-.87-.82-1.2-.33-.92-.74-2.87.9-4.5.46-.35 2.8-.85 4.32-.08.52.26 1.04.7 1.04 1.9 0 1.1.9 2 2 2s2-.9 2-2c0-2-.78-3.68-2.18-4.8l2.87-3.84c.67-.9.5-2.14-.4-2.8-.88-.66-2.14-.48-2.8.4l-3.27 4.38c-.1.13-.18.27-.24.4-2.46-.24-5.02.46-6.13 1.57-1.9 1.9-2.44 4.13-2.37 6.04-6.06-.8-10.78-6.02-10.78-12.3 0-.96.14-2 .4-3.02.4-1.62-.23-3.32-1.6-4.26C12 600.35 10 596.54 10 592.47c0-3.98 1.85-7.62 5.07-10 .26-.18.48-.4.68-.63.15-.07.3-.14.45-.25 1.13-.85 2.55-.27 3.32.7 1.16 1.47 1.13 4.33-2.77 7.54-.86.7-.98 1.96-.28 2.82.4.48.97.73 1.55.73.44 0 .9-.16 1.27-.47.96-.8 1.76-1.6 2.42-2.43.15-.03.3-.08.44-.15 4.12-1.98 7.78 1.26 7.96 1.4 0 .03.03.03.04.05.02 1.38.24 2.9.74 4.54.27.87 1.06 1.42 1.92 1.42.2 0 .4-.03.58-.08 1.06-.33 1.65-1.44 1.33-2.5-1.3-4.28-.35-7.75 2.52-9.28 2.25-1.2 5.85-1.02 8.47 2.18.08.1.18.2.28.28v15.04c-1-.2-2.12-.6-3.1-1.38.6-1.17.98-2.47 1.14-3.85.12-1.1-.67-2.1-1.77-2.2-1.1-.14-2.1.66-2.2 1.76-.47 4.16-3.74 6.3-6.76 6.58-2.9.28-6.5-1.12-7.9-5.83-.32-1.06-1.44-1.66-2.5-1.34-1.05.32-1.65 1.43-1.34 2.5.7 2.28 1.85 4.2 3.35 5.64-.45.3-.9.66-1.32 1.1-1.6 1.7-2.3 4.07-2.1 7.03.07 1.06.95 1.87 2 1.87.04 0 .08 0 .13 0 1.1-.08 1.95-1.03 1.87-2.13-.1-1.8.22-3.14 1-4 .98-1.07 2.48-1.14 2.55-1.14.18 0 .34-.03.5-.08.97.27 2 .42 3.05.42.36 0 .73 0 1.1-.05 2.67-.25 5.05-1.36 6.86-3.07 1.8 1.4 3.86 2 5.47 2.23v14.56c0 3.93-3.64 5.98-7.23 5.98zM72 636c-6.14 0-11.63-2.78-15.3-7.15-.1-.14-.2-.27-.32-.4-2.73-3.4-4.38-7.74-4.38-12.45 0-5.17 1.98-9.86 5.2-13.42.04-.02.06-.03.1-.05.15-.14.27-.3.38-.46 3.64-3.74 8.7-6.07 14.32-6.07 11.03 0 20 8.97 20 20s-8.97 20-20 20zM86 614c-1.1 0-2 .9-2 2 0 6.62-5.38 12-12 12s-12-5.38-12-12 5.38-12 12-12c1.1 0 2-.9 2-2s-.9-2-2-2c-8.82 0-16 7.18-16 16s7.18 16 16 16 16-7.18 16-16c0-1.1-.9-2-2-2z" class="st0"/><circle cx="80" cy="604" r="2" class="st0"/><path d="M68.4 613.6c-.77-.8-2.03-.8-2.8 0s-.8 2.03 0 2.8l5.4 5.43 9.4-9.42c.8-.77.8-2.03 0-2.8s-2.03-.8-2.8 0l-6.6 6.57-2.6-2.58zM-450.1-375.6l-15.14-6.25c-1.02-.42-2.2.07-2.6 1.1-.43 1 .06 2.18 1.08 2.6l12.5 5.14-37.65 15.4c-.54.2-1.66.2-2.2 0l-37.74-15.45 37.8-16.32c.5-.22 1.58-.22 2.08 0l5.17 2.23c1.02.44 2.2-.03 2.64-1.04.44-1.02-.03-2.2-1.04-2.63l-5.17-2.24c-1.52-.66-3.74-.66-5.26 0l-40.33 17.4c-1.12.5-1.6 1.2-1.8 1.8-.73.3-1.24 1-1.24 1.84v31.38c-.34.5-.68.98-1 1.43-1.6 2.27-3 4.22-3 6.45 0 3.17 2.7 5.75 6 5.75s6-2.58 6-5.75c0-2.23-1.4-4.18-3-6.44-.32-.44-.66-.92-1-1.42v-29.4l12 4.9V-340c0 .6.26 1.15.7 1.53.46.38 11.4 9.47 29.3 9.47 18.28 0 28.88-9.1 29.32-9.5.43-.38.68-.92.68-1.5v-25.1l12.9-5.3c1.82-.73 2-2.06 2-2.6s-.18-1.87-2-2.6zM-537-331c-1.1 0-2-.8-2-1.75 0-.88.94-2.26 2-3.76 1.06 1.5 2 2.87 2 3.75 0 .96-.9 1.75-2 1.75zm70-9.97c-2.5 1.87-11.72 7.97-26 7.97-13.94 0-23.42-6.1-26-8v-4.74c4.66 3.44 13.82 8.74 26 8.74 1.1 0 2-.9 2-2s-.9-2-2-2c-13.8 0-23.58-7.76-26-9.88v-12.6l23.4 9.57c.75.3 1.67.46 2.6.46s1.85-.16 2.6-.47l23.4-9.58v22.5z" class="st0"/><circle cx="-485" cy="-340" r="2" class="st0"/><circle cx="-479" cy="-386" r="2" class="st0"/><path d="M-478.26-378.86l-15-6c-.53-.2-1.12-.18-1.63.07l-4 2c-.98.5-1.38 1.7-.9 2.7.5.98 1.7 1.38 2.7.9l3.2-1.6 14.16 5.66c.24.1.5.14.74.14.8 0 1.54-.48 1.86-1.26.4-1.02-.1-2.2-1.12-2.6z" class="st0"/><circle cx="-504" cy="-378" r="2" class="st0"/><circle cx="-344" cy="-391" r="2" class="st0"/><path d="M-328-358.62v-11.5l12.9-5.27c1.82-.73 2-2.06 2-2.6s-.18-1.87-2-2.6l-15.14-6.25c-1.02-.42-2.2.07-2.6 1.1-.43 1 .06 2.18 1.08 2.6l12.5 5.14-37.65 15.4c-.54.2-1.66.2-2.2 0l-37.74-15.45 37.8-16.32c.5-.22 1.58-.22 2.08 0l5.17 2.23c1.02.44 2.2-.03 2.64-1.04.44-1.02-.03-2.2-1.04-2.63l-5.17-2.24c-1.52-.66-3.74-.66-5.26 0l-40.33 17.4c-1.12.5-1.6 1.2-1.8 1.8-.73.3-1.24 1-1.24 1.84v31.38c-.34.5-.68.98-1 1.43-1.6 2.27-3 4.22-3 6.45 0 3.17 2.7 5.75 6 5.75s6-2.58 6-5.75c0-2.23-1.4-4.18-3-6.44-.32-.44-.66-.92-1-1.42v-29.4l12 4.9V-345c0 .6.26 1.15.7 1.53.45.37 10.62 8.82 27.4 9.43 1 12.32 11.33 22.04 23.9 22.04 13.23 0 24-10.77 24-24 0-10.43-6.7-19.32-16-22.62zM-402-336c-1.1 0-2-.8-2-1.75 0-.88.94-2.26 2-3.76 1.06 1.5 2 2.87 2 3.75 0 .96-.9 1.75-2 1.75zm18-14.54c3.46 2.64 9.42 6.14 17.74 7.24.1 0 .18.02.26.02 1 0 1.85-.74 1.98-1.74.15-1.1-.62-2.1-1.72-2.25-10.2-1.34-16.54-6.86-18.26-8.54v-12.68l23.4 9.57c.75.3 1.67.46 2.6.46s1.85-.16 2.6-.47l23.4-9.58v8.82c-1.3-.22-2.64-.34-4-.34-12.54 0-22.86 9.67-23.9 21.95-12.9-.52-21.64-6.15-24.1-7.94v-4.54zm48 34.54c-11.03 0-20-8.97-20-20s8.97-20 20-20c1.67 0 3.28.23 4.83.6.33.25.73.4 1.17.4.06 0 .1 0 .17-.02 8 2.6 13.83 10.14 13.83 19.02 0 11.03-8.97 20-20 20zM-322-338c-1.1 0-2 .9-2 2 0 6.62-5.38 12-12 12s-12-5.38-12-12 5.38-12 12-12c1.1 0 2-.9 2-2s-.9-2-2-2c-8.82 0-16 7.18-16 16s7.18 16 16 16 16-7.18 16-16c0-1.1-.9-2-2-2zM-334-342c0-1.1-.9-2-2-2s-2 .9-2 2v6c0 1.1.9 2 2 2s2-.9 2-2v-6z" class="st0"/><circle cx="-336" cy="-330" r="2" class="st0"/><circle cx="-328" cy="-347" r="2" class="st0"/><path d="M-357.26-390.86c-.53-.2-1.12-.18-1.63.07l-4 2c-.98.5-1.38 1.7-.9 2.7.5.98 1.7 1.38 2.7.9l3.2-1.6 14.16 5.66c.24.1.5.14.74.14.8 0 1.54-.48 1.86-1.26.4-1.02-.1-2.2-1.12-2.6l-15-6z" class="st0"/><circle cx="-368" cy="-384" r="2" class="st0"/><path d="M-53.34-334.96c-4.28-3.2-4.9-18.52-5.27-27.78-.13-2.93-.23-5.47-.4-7.44-.1-1.1-1.08-1.9-2.18-1.8-1.1.1-1.9 1.06-1.8 2.16.16 1.88.26 4.36.37 7.24.3 7.35.68 14.14 1.7 19.58H-83c-1.1 0-2 .9-2 2s.9 2 2 2h23s.02 0 .03 0c.45 1.5.98 2.85 1.6 4h-61.38c3.07-6 4.3-17.53 5.3-29.9.17-1.88.3-3.55.44-4.9.97-9.8 5.65-26.2 26-26.2 5.95 0 10.93 1.46 14.8 4.34.9.66 2.15.47 2.8-.42.67-.88.48-2.13-.4-2.8-2.15-1.6-4.57-2.8-7.23-3.65-.27-5.27-4.63-9.47-9.97-9.47-5.3 0-9.65 4.16-9.97 9.38-15.78 4.8-19.26 20.85-20.02 28.42-.13 1.37-.27 3.06-.42 4.96-.7 8.3-2.27 27.47-6.2 30.27-3.02.3-5.38 2.87-5.38 5.97 0 3.3 2.7 6 6 6h23.17c.97 6.22 6.34 11 12.83 11s11.86-4.78 12.83-11H-54c3.3 0 6-2.7 6-6 0-3.1-2.34-5.63-5.34-5.96zM-88-404c2.78 0 5.12 1.9 5.8 4.47-1.84-.3-3.77-.47-5.8-.47-2.07 0-4 .16-5.8.44.7-2.55 3.03-4.44 5.8-4.44zm0 88c-4.27 0-7.86-3-8.77-7h17.54c-.9 4-4.5 7-8.77 7zm34-11h-70c-1.1 0-2-.9-2-2s.9-2 2-2h70c1.1 0 2 .9 2 2s-.9 2-2 2zM-94.37-387.1c1.05-.35 1.62-1.48 1.27-2.53-.35-1.05-1.5-1.62-2.53-1.27-9.76 3.25-12.22 11.74-13.35 19.62-.16 1.1.6 2.1 1.7 2.26.1 0 .2.02.28.02.98 0 1.84-.72 1.98-1.72 1.16-8.1 3.4-13.97 10.65-16.38z" class="st0"/><circle cx="-107" cy="-363" r="2" class="st0"/><circle cx="-67" cy="-387" r="2" class="st0"/><path d="M41.63-387.1c1.05-.35 1.62-1.48 1.27-2.53-.35-1.05-1.48-1.62-2.53-1.27-9.76 3.25-12.23 11.74-13.35 19.62-.16 1.1.6 2.1 1.7 2.26.1 0 .2.02.28.02.98 0 1.84-.72 1.98-1.72 1.16-8.1 3.4-13.97 10.65-16.38z" class="st0"/><circle cx="29" cy="-363" r="2" class="st0"/><circle cx="69" cy="-387" r="2" class="st0"/><path d="M77.33-359.4c-.02-.92-.05-2.03-.08-3.2-.07-3.13-.15-6.36-.26-7.58-.1-1.1-1.08-1.9-2.18-1.8-1.1.1-1.9 1.06-1.8 2.16.1 1.08.17 4.4.23 7.32.03.9.05 1.77.07 2.54-.44-.02-.88-.04-1.32-.04-13.23 0-24 10.77-24 24 0 .34 0 .67.03 1H16.25c3.07-6 4.3-17.53 5.3-29.92.17-1.87.3-3.53.44-4.88.97-9.8 5.65-26.2 26-26.2 5.95 0 10.93 1.46 14.8 4.34.9.66 2.15.47 2.8-.42.67-.88.48-2.13-.4-2.8-2.15-1.6-4.57-2.8-7.23-3.65C57.7-403.8 53.34-408 48-408c-5.3 0-9.65 4.16-9.97 9.38-15.77 4.8-19.26 20.85-20.02 28.42-.13 1.37-.27 3.06-.42 4.95-.7 8.3-2.27 27.48-6.2 30.28C8.36-334.67 6-332.1 6-329c0 3.3 2.7 6 6 6h23.17c.97 6.22 6.34 11 12.83 11 3.86 0 7.46-1.7 9.9-4.6 3.97 2.9 8.84 4.6 14.1 4.6 13.23 0 24-10.77 24-24 0-11.24-7.9-20.95-18.67-23.4zM48-404c2.78 0 5.12 1.9 5.8 4.47-1.85-.3-3.77-.47-5.8-.47-2.07 0-4 .16-5.8.44.7-2.55 3.03-4.44 5.8-4.44zm-38 75c0-1.1.9-2 2-2h36.53c.3 1.38.7 2.72 1.23 4H12c-1.1 0-2-.9-2-2zm38 13c-4.27 0-7.86-3-8.77-7h12.6c.9 1.37 1.9 2.64 3.05 3.8-1.7 2.02-4.2 3.2-6.88 3.2zm24 0c-7.3 0-13.66-3.93-17.16-9.77-.07-.17-.16-.32-.27-.46-1.63-2.9-2.57-6.22-2.57-9.77 0-11.03 8.97-20 20-20 .9 0 1.83.06 2.73.18C84.58-354.47 92-345.95 92-336c0 11.03-8.97 20-20 20zM86-338c-1.1 0-2 .9-2 2 0 6.62-5.38 12-12 12s-12-5.38-12-12 5.38-12 12-12c1.1 0 2-.9 2-2s-.9-2-2-2c-8.82 0-16 7.18-16 16s7.18 16 16 16 16-7.18 16-16c0-1.1-.9-2-2-2zM74-342c0-1.1-.9-2-2-2s-2 .9-2 2v6c0 1.1.9 2 2 2s2-.9 2-2v-6z" class="st0"/><circle cx="72" cy="-330" r="2" class="st0"/><circle cx="80" cy="-347" r="2" class="st0"/><path d="M-112.22 37c-5.62 0-10.56 3.98-11.74 9.47-.23 1.08.46 2.15 1.54 2.38 1.08.23 2.14-.46 2.38-1.54.78-3.65 4.07-6.3 7.82-6.3 4.4 0 8 3.6 8 8 0 1.1.9 2 2 2s2-.9 2-2c0-6.62-5.4-12-12-12zM-64.22 37c-5.62 0-10.56 3.98-11.74 9.47-.23 1.08.46 2.15 1.54 2.38 1.08.23 2.14-.46 2.38-1.54.78-3.65 4.07-6.3 7.82-6.3 4.4 0 8 3.6 8 8 0 1.1.9 2 2 2s2-.9 2-2c0-6.62-5.4-12-12-12z" class="st0"/><circle cx="-121" cy="54" r="2" class="st0"/><circle cx="-73" cy="54" r="2" class="st0"/><path d="M-40.75 37.23c-.88-1.8-2.4-3.16-4.3-3.82-1.88-.64-3.92-.52-5.72.35-.07.03-.13.08-.2.1-3.5-3-8.05-4.85-13.03-4.85-5.1 0-9.77 1.94-13.3 5.1-2.2-2.95-6.44-5.1-10.58-5.1-4.4 0-8.64 2.08-10.83 5.1-3.55-3.16-8.2-5.1-13.3-5.1-4.98 0-9.53 1.84-13.03 4.86-1.06-.56-2.26-.86-3.47-.86-4.14 0-7.5 3.36-7.5 7.5 0 2.84 1.63 5.4 4.1 6.66-.06.6-.1 1.22-.1 1.84 0 11.03 8.97 20 20 20s20-8.97 20-20c0-4.43-1.46-8.5-3.9-11.83 1.02-2.1 4.3-4.17 8.02-4.17 3.53 0 6.77 2.1 7.8 4.17C-82.55 40.5-84 44.57-84 49c0 11.03 8.97 20 20 20s20-8.97 20-20c0-.62-.04-1.22-.1-1.83 3.63-1.84 5.13-6.27 3.35-9.94zM-132 40.5c0-1.93 1.57-3.5 3.5-3.5.17 0 .34.02.5.04-1.3 1.76-2.35 3.72-3.04 5.85-.6-.64-.96-1.5-.96-2.4zm20 24.5c-8.82 0-16-7.18-16-16s7.18-16 16-16 16 7.18 16 16-7.18 16-16 16zm48 0c-8.82 0-16-7.18-16-16s7.18-16 16-16 16 7.18 16 16-7.18 16-16 16zm19.8-23.35c-.16.47-.42.9-.76 1.25-.68-2.13-1.73-4.1-3.04-5.85 1.47-.2 2.97.52 3.65 1.92.4.84.46 1.8.16 2.68zM-320 312c0-7.03-1.85-13.95-5.35-20-.55-.96-1.78-1.3-2.73-.73-.96.55-1.3 1.78-.73 2.73 3.14 5.45 4.8 11.67 4.8 18 0 19.85-16.15 36-36 36s-36-16.15-36-36 16.15-36 36-36c4.58 0 9.04.85 13.26 2.52 1.03.4 2.2-.1 2.6-1.12.4-1.03-.1-2.2-1.12-2.6-4.7-1.86-9.65-2.8-14.74-2.8-22.06 0-40 17.94-40 40 0 14.77 8.06 27.7 20 34.62V366c0 .68.34 1.3.9 1.68s1.3.42 1.9.15l17.2-7.64 17.2 7.63c.25.1.52.17.8.17.38 0 .76-.1 1.1-.32.56-.37.9-1 .9-1.68v-19.38c11.94-6.93 20-19.85 20-34.62zm-56 36.65c1.3.57 2.63 1.08 4 1.5v11l-4 1.77v-14.27zm32 14.27l-15.2-6.75c-.5-.23-1.1-.23-1.6 0l-7.2 3.2v-8.17c2.6.52 5.26.8 8 .8s5.4-.28 8-.8v2.8c0 1.1.9 2 2 2s2-.9 2-2v-3.84c1.37-.43 2.7-.94 4-1.5v14.26zM-360 344c17.65 0 32-14.36 32-32s-14.35-32-32-32-32 14.36-32 32c0 7 2.2 13.63 6.4 19.2.66.9 1.92 1.07 2.8.4.88-.66 1.06-1.9.4-2.8-3.66-4.87-5.6-10.68-5.6-16.8 0-15.44 12.56-28 28-28s28 12.56 28 28-12.56 28-28 28c-1.1 0-2 .9-2 2s.9 2 2 2z" class="st0"/><circle cx="-339" cy="281" r="2" class="st0"/><circle cx="-369" cy="340" r="2" class="st0"/><path d="M-363.24 330h6.9c2.2 0 4-1.8 4-4v-28c0-2.2-1.8-4-4-4H-367c-2.2 0-4 1.8-4 4v5.8c0 2.13 1.66 3.87 3.76 4V326c0 2.2 1.8 4 4 4zm-3.76-32h10.65v28h-6.9v-22.2H-367V298zM-184 312c0-7.03-1.85-13.95-5.35-20-.55-.96-1.78-1.3-2.73-.73-.96.55-1.3 1.78-.73 2.73 3.14 5.45 4.8 11.67 4.8 18 0 19.85-16.15 36-36 36s-36-16.15-36-36 16.15-36 36-36c4.58 0 9.04.85 13.26 2.52 1.03.4 2.2-.1 2.6-1.12.4-1.03-.1-2.2-1.12-2.6-4.7-1.86-9.65-2.8-14.74-2.8-22.06 0-40 17.94-40 40 0 14.77 8.06 27.7 20 34.62V366c0 .68.34 1.3.9 1.68s1.3.42 1.9.15l17.2-7.64 17.2 7.63c.25.1.52.17.8.17.38 0 .76-.1 1.1-.32.56-.37.9-1 .9-1.68v-19.38c11.94-6.93 20-19.85 20-34.62zm-56 36.65c1.3.57 2.63 1.08 4 1.5v11l-4 1.77v-14.27zm32 14.27l-15.2-6.75c-.5-.23-1.1-.23-1.6 0l-7.2 3.2v-8.17c2.6.52 5.26.8 8 .8s5.4-.28 8-.8v2.8c0 1.1.9 2 2 2s2-.9 2-2v-3.84c1.37-.43 2.7-.94 4-1.5v14.26zM-224 344c17.65 0 32-14.36 32-32s-14.35-32-32-32-32 14.36-32 32c0 7 2.2 13.63 6.4 19.2.66.9 1.92 1.07 2.8.4.88-.66 1.06-1.9.4-2.8-3.66-4.87-5.6-10.68-5.6-16.8 0-15.44 12.56-28 28-28s28 12.56 28 28-12.56 28-28 28c-1.1 0-2 .9-2 2s.9 2 2 2z" class="st0"/><circle cx="-203" cy="281" r="2" class="st0"/><circle cx="-233" cy="340" r="2" class="st0"/><path d="M-210 325v-6.3c0-2.2-1.8-4-4-4h-.43l1-1.36c.03-.06.07-.1.1-.17 2.83-4.32 3.18-9.6.93-13.77-2.17-4-6.4-6.4-11.34-6.4-.13 0-.27 0-.4 0-7.77.2-12.92 5.43-12.82 13.03.03 2.2 1.8 3.95 4 3.95h4.14l-8.07 11.68c-.45.67-.7 1.46-.7 2.28V325c0 2.2 1.8 4 4 4h19.6c2.2 0 4-1.8 4-4zm-23.6-1.06l10.48-15.16c1.4-1.85 2.47-5.48-1.04-5.48-1.6 0-2.75.75-2.75 2.68-2.36 0-3.75 0-6.06 0-.08-5.94 3.98-8.86 8.92-8.98.1 0 .2 0 .3 0 7.8 0 11.16 7.72 7.07 13.98l-5.62 7.72h8.3c0 2.4 0 3.9 0 6.3h-19.6v-1.06zM-48 312c0-7.03-1.85-13.95-5.35-20-.55-.96-1.78-1.3-2.73-.73-.96.55-1.3 1.78-.73 2.73 3.14 5.45 4.8 11.67 4.8 18 0 19.85-16.15 36-36 36s-36-16.15-36-36 16.15-36 36-36c4.58 0 9.04.85 13.26 2.52 1.03.4 2.2-.1 2.6-1.12.4-1.03-.1-2.2-1.12-2.6-4.7-1.86-9.65-2.8-14.74-2.8-22.06 0-40 17.94-40 40 0 14.77 8.06 27.7 20 34.62V366c0 .68.34 1.3.9 1.68.58.37 1.3.42 1.9.15l17.2-7.64 17.2 7.63c.25.1.52.17.8.17.38 0 .76-.1 1.1-.32.56-.37.9-1 .9-1.68v-19.38c11.94-6.93 20-19.85 20-34.62zm-56 36.65c1.3.57 2.63 1.08 4 1.5v11l-4 1.77v-14.27zm32 14.27l-15.2-6.75c-.5-.23-1.1-.23-1.6 0l-7.2 3.2v-8.17c2.6.52 5.26.8 8 .8s5.4-.28 8-.8v2.8c0 1.1.9 2 2 2s2-.9 2-2v-3.84c1.37-.43 2.7-.94 4-1.5v14.26zM-88 344c17.65 0 32-14.36 32-32s-14.35-32-32-32-32 14.36-32 32c0 7 2.2 13.63 6.4 19.2.67.9 1.92 1.07 2.8.4.88-.66 1.06-1.9.4-2.8-3.66-4.87-5.6-10.68-5.6-16.8 0-15.44 12.56-28 28-28s28 12.56 28 28-12.56 28-28 28c-1.1 0-2 .9-2 2s.9 2 2 2z" class="st0"/><circle cx="-67" cy="281" r="2" class="st0"/><circle cx="-97" cy="340" r="2" class="st0"/><path d="M-79.26 326.08c2.5-2.53 3.92-6.05 3.88-9.68 0-4.25-1.47-7.65-4.16-9.8l3.1-5.65c.34-.6.5-1.25.5-1.93V298c0-2.2-1.78-4-4-4h-17.6c-2.22 0-4 1.8-4 4v6.24c0 2.2 1.78 4 4 4h1.6l-.9 1.86c-.26.54-.4 1.14-.4 1.74v.94c0 .1 0 .2.02.28h-1.4c-2.2 0-4 1.8-4 4 0 4.75 2.47 8.96 6.6 11.26 2.08 1.15 4.27 1.68 6.9 1.68 3.9 0 7.3-1.36 9.86-3.92zm-19.36-9.02c2.06 0 4.2 0 6.22 0 .04 1.8 1.22 2.7 3.13 2.7 1.94 0 3-1.45 3.04-3.3-.03-3.25-2.7-3.72-5.34-3.72-.56 0-1.13.02-1.66.04v-.94l3.68-7.6h-8V298h17.62v1.02l-5.1 9.25c4.4 1.1 5.66 4.63 5.66 8.16.03 4.67-3.33 9.57-9.75 9.57-2.1 0-3.6-.43-4.95-1.18-2.6-1.45-4.55-4.23-4.55-7.76zM-116 162c0 1.1.9 2 2 2h20c1.1 0 2-.9 2-2s-.9-2-2-2h-20c-1.1 0-2 .9-2 2zM-70 168h-44c-1.1 0-2 .9-2 2s.9 2 2 2h44c1.1 0 2-.9 2-2s-.9-2-2-2zM-76 178c0-1.1-.9-2-2-2h-36c-1.1 0-2 .9-2 2s.9 2 2 2h36c1.1 0 2-.9 2-2zM-114 184c-1.1 0-2 .9-2 2s.9 2 2 2h32c1.1 0 2-.9 2-2s-.9-2-2-2h-32z" class="st0"/><circle cx="-70" cy="178" r="2" class="st0"/><circle cx="-78" cy="142" r="2" class="st0"/><path d="M-48 190.13V150c0-5.5-4.5-10-10-10h-12c-1.1 0-2 .9-2 2s.9 2 2 2h12c3.3 0 6 2.7 6 6v37.23c-3.53-2.05-7.63-3.23-12-3.23-11.87 0-21.75 8.66-23.66 20h-3.84c-.98 0-1.92.6-2.42 1.1L-104 215.16l-10.08-10.08c-.5-.5-1.44-1.1-2.42-1.1h-9.5c-3.3 0-6-2.7-6-6v-48c0-3.3 2.7-6 6-6h28c1.1 0 2-.9 2-2s-.9-2-2-2h-28c-5.5 0-10 4.5-10 10v48c0 5.5 4.5 10 10 10h9.17l10.92 10.9c.5.52 1.17.8 1.9.8s1.4-.28 1.92-.8l10.9-10.9H-88c0 13.23 10.77 24 24 24s24-10.77 24-24c0-7.1-3.1-13.47-8-17.87zM-64 228c-11.03 0-20-8.97-20-20s8.97-20 20-20 20 8.97 20 20-8.97 20-20 20zM-50 206c-1.1 0-2 .9-2 2 0 6.62-5.38 12-12 12s-12-5.38-12-12 5.38-12 12-12c1.1 0 2-.9 2-2s-.9-2-2-2c-8.82 0-16 7.18-16 16s7.18 16 16 16 16-7.18 16-16c0-1.1-.9-2-2-2z" class="st0"/><circle cx="-56" cy="196" r="2" class="st0"/><path d="M-67.6 200.6c-.77-.8-2.03-.8-2.8 0-.8.77-.8 2.03 0 2.8l3.57 3.6-3.58 3.6c-.8.77-.8 2.03 0 2.8.38.4.9.6 1.4.6s1.02-.2 1.4-.6l3.6-3.57 3.6 3.58c.38.4.9.6 1.4.6s1.02-.2 1.4-.6c.8-.77.8-2.03 0-2.8l-3.57-3.6 3.58-3.6c.8-.77.8-2.03 0-2.8-.77-.8-2.03-.8-2.8 0l-3.6 3.57-3.6-3.58zM88 312c0-7.03-1.85-13.95-5.35-20-.56-.96-1.78-1.28-2.73-.73-.96.55-1.3 1.78-.73 2.73 3.13 5.45 4.8 11.67 4.8 18 0 19.85-16.15 36-36 36s-36-16.15-36-36 16.15-36 36-36c4.58 0 9.04.85 13.26 2.52 1.03.4 2.2-.1 2.6-1.12s-.1-2.2-1.12-2.6c-4.7-1.86-9.65-2.8-14.74-2.8-22.06 0-40 17.94-40 40 0 14.77 8.06 27.7 20 34.62V366c0 .68.34 1.3.9 1.68.58.36 1.3.42 1.9.15L48 360.2l17.2 7.63c.25.1.52.17.8.17.38 0 .76-.1 1.1-.32.56-.37.9-1 .9-1.68v-19.38c11.94-6.93 20-19.85 20-34.62zm-56 36.65c1.3.57 2.63 1.08 4 1.5v11l-4 1.77v-14.27zm32 14.27l-15.2-6.75c-.5-.23-1.1-.23-1.6 0l-7.2 3.2v-8.17c2.6.52 5.26.8 8 .8s5.4-.28 8-.8v2.8c0 1.1.9 2 2 2s2-.9 2-2v-3.84c1.37-.43 2.7-.94 4-1.5v14.26zM48 344c17.64 0 32-14.36 32-32s-14.36-32-32-32-32 14.36-32 32c0 7 2.2 13.63 6.4 19.2.66.9 1.92 1.07 2.8.4.9-.66 1.06-1.9.4-2.8-3.66-4.87-5.6-10.68-5.6-16.8 0-15.44 12.56-28 28-28s28 12.56 28 28-12.56 28-28 28c-1.1 0-2 .9-2 2s.9 2 2 2zM50 290.57c0-1.1-.9-2-2-2-10.88 0-20.43 7.78-22.7 18.5-.24 1.08.45 2.14 1.53 2.37.14.03.28.04.42.04.92 0 1.75-.64 1.95-1.58 1.9-8.88 9.8-15.33 18.8-15.33 1.1 0 2-.9 2-2z" class="st0"/><circle cx="27" cy="315" r="2" class="st0"/><circle cx="69" cy="281" r="2" class="st0"/><circle cx="39" cy="340" r="2" class="st0"/><path d="M-458 286h-6.2c-.93-4.56-4.97-8-9.8-8h-12c-1.1 0-2 .9-2 2s.9 2 2 2h12c3.3 0 6 2.7 6 6v46c0 3.3-2.7 6-6 6h-25.5c-.98 0-1.92.6-2.42 1.1L-512 351.16l-10.08-10.08c-.5-.5-1.44-1.1-2.42-1.1h-9.5c-3.3 0-6-2.7-6-6v-46c0-3.3 2.7-6 6-6h20c1.1 0 2-.9 2-2s-.9-2-2-2h-20c-5.5 0-10 4.5-10 10v46c0 5.5 4.5 10 10 10h9.17l10.92 10.9c.5.52 1.17.8 1.9.8s1.4-.28 1.92-.8l2.93-2.92c.05 0 .1.02.15.02h26.17l5.9 5.9c.53.52 1.2.8 1.93.8.72 0 1.4-.28 1.92-.8l5.9-5.9h7.68c5.24 0 9.5-4.5 9.5-10v-46c0-5.52-4.5-10-10-10zm6 56c0 3.3-2.47 6-5.5 6h-8c-.98 0-1.9.58-2.4 1.08l-5.1 5.1-5.1-5.1c-.5-.5-1.42-1.08-2.4-1.08h-22.67l4-4H-474c5.5 0 10-4.5 10-10v-44h6c3.3 0 6 2.7 6 6v46zM-526 298c0 1.1.9 2 2 2h20c1.1 0 2-.9 2-2s-.9-2-2-2h-20c-1.1 0-2 .9-2 2zM-484 304h-40c-1.1 0-2 .9-2 2s.9 2 2 2h40c1.1 0 2-.9 2-2s-.9-2-2-2zM-482 314c0-1.1-.9-2-2-2h-40c-1.1 0-2 .9-2 2s.9 2 2 2h40c1.1 0 2-.9 2-2zM-524 320c-1.1 0-2 .9-2 2s.9 2 2 2h28c1.1 0 2-.9 2-2s-.9-2-2-2h-28z" class="st0"/><circle cx="-494" cy="280" r="2" class="st0"/><circle cx="-488" cy="322" r="2" class="st0"/><path d="M-448.44 590.74l-5.13-6.33 2.7-7.72c.3-.9-.05-1.9-.87-2.37l-6.94-4.15-.08-8.2c0-.94-.7-1.76-1.63-1.94l-7.9-1.48-2.82-7.66c-.33-.9-1.26-1.44-2.2-1.28l-7.93 1.33-5.23-6.2c-.63-.73-1.7-.9-2.53-.43l-7 4-7-4c-.83-.5-1.9-.3-2.52.44l-5.23 6.2-7.92-1.32c-.95-.16-1.88.38-2.2 1.28l-2.83 7.66-7.9 1.5c-.95.17-1.63.98-1.64 1.94l-.08 8.2-6.94 4.15c-.82.5-1.18 1.5-.87 2.38l2.7 7.73-5.13 6.34c-.6.74-.6 1.78 0 2.52l5.13 6.33-2.7 7.72c-.3.9.05 1.9.87 2.37l6.94 4.15.08 8.2c0 .94.7 1.76 1.63 1.94l7.9 1.48 2.82 7.66c.33.9 1.26 1.44 2.2 1.28l7.93-1.33 5.23 6.2c.63.73 1.7.9 2.53.43l7-4 7 4c.3.18.65.27 1 .27.56 0 1.12-.25 1.52-.7l5.23-6.2 7.92 1.32c.96.16 1.88-.38 2.2-1.28l2.83-7.66 7.9-1.5c.95-.17 1.63-.98 1.64-1.94l.08-8.2 6.94-4.15c.82-.5 1.18-1.5.87-2.38l-2.7-7.73 5.13-6.34c.6-.74.6-1.78 0-2.52zm-8.94 7.2c-.43.54-.56 1.26-.33 1.9l2.5 7.26-6.5 3.9c-.6.35-.96 1-.97 1.7l-.08 7.66-7.4 1.4c-.7.13-1.26.62-1.5 1.28l-2.65 7.16-7.4-1.24c-.7-.12-1.42.14-1.87.68l-4.9 5.8-6.53-3.76c-.3-.18-.66-.26-1-.26s-.7.08-1 .26l-6.54 3.75-4.9-5.8c-.44-.53-1.15-.8-1.85-.67l-7.4 1.24-2.64-7.16c-.25-.66-.82-1.15-1.5-1.28l-7.42-1.4-.08-7.67c0-.7-.37-1.35-.97-1.7l-6.5-3.9 2.5-7.24c.24-.66.1-1.38-.32-1.92l-4.8-5.94 4.8-5.94c.43-.54.56-1.26.33-1.9l-2.5-7.26 6.5-3.9c.6-.35.96-1 .97-1.7l.08-7.66 7.4-1.4c.7-.13 1.26-.62 1.5-1.28l2.65-7.16 7.4 1.24c.7.12 1.42-.14 1.87-.68l4.9-5.8 6.53 3.76c.62.35 1.38.35 2 0l6.54-3.75 4.9 5.8c.44.53 1.15.8 1.85.67l7.4-1.24 2.64 7.16c.25.66.82 1.15 1.5 1.28l7.42 1.4.08 7.67c0 .7.37 1.35.97 1.7l6.5 3.9-2.5 7.24c-.24.66-.1 1.38.32 1.92l4.8 5.94-4.8 5.94zM-517.8 582c.7 0 1.37-.36 1.74-1 2.8-4.85 7.3-8.42 12.64-10.05 1.06-.32 1.65-1.44 1.33-2.5-.3-1.05-1.42-1.65-2.48-1.33-6.32 1.93-11.62 6.14-14.94 11.88-.55.96-.23 2.18.73 2.73.32.18.67.27 1 .27zM-497 558c-18.75 0-34 15.25-34 34 0 7.43 2.35 14.48 6.8 20.4.66.9 1.92 1.07 2.8.4.88-.66 1.06-1.9.4-2.8-3.93-5.22-6-11.45-6-18 0-16.54 13.46-30 30-30s30 13.46 30 30-13.46 30-30 30c-1.1 0-2 .9-2 2s.9 2 2 2c18.75 0 34-15.25 34-34s-15.25-34-34-34z" class="st0"/><circle cx="-517" cy="617" r="2" class="st0"/><circle cx="-496" cy="568" r="2" class="st0"/><path d="M-491.4 608.4c.38.4.9.6 1.4.6s1.02-.2 1.4-.6l7-7c.8-.77.8-2.03 0-2.8l-5.57-5.6 5.58-5.6c.8-.77.8-2.03 0-2.8l-7-7c-.77-.8-2.03-.8-2.8 0l-5.6 5.57-5.6-5.58c-.77-.8-2.03-.8-2.8 0l-7 7c-.8.77-.8 2.03 0 2.8l5.57 5.6-5.58 5.6c-.8.77-.8 2.03 0 2.8l7 7c.77.8 2.03.8 2.8 0l5.6-5.57 5.6 5.58zm-12.6-4.23l-4.17-4.17 5.58-5.6c.8-.77.8-2.03 0-2.8l-5.57-5.6 4.17-4.17 5.6 5.58c.77.8 2.03.8 2.8 0l5.6-5.57 4.17 4.17-5.58 5.6c-.8.77-.8 2.03 0 2.8l5.57 5.6-4.17 4.17-5.6-5.58c-.38-.4-.9-.6-1.4-.6s-1.02.2-1.4.6l-5.6 5.57zM-312.44 590.74l-5.13-6.33 2.7-7.72c.3-.9-.05-1.9-.87-2.37l-6.94-4.15-.08-8.2c0-.94-.7-1.76-1.63-1.94l-7.9-1.48-2.82-7.66c-.33-.9-1.26-1.44-2.2-1.28l-7.93 1.33-5.23-6.2c-.63-.73-1.7-.9-2.53-.43l-7 4-7-4c-.83-.5-1.9-.3-2.52.44l-5.23 6.2-7.92-1.32c-.95-.16-1.88.38-2.2 1.28l-2.83 7.66-7.9 1.5c-.95.17-1.63.98-1.64 1.94l-.08 8.2-6.94 4.15c-.82.5-1.18 1.5-.87 2.38l2.7 7.73-5.13 6.34c-.6.74-.6 1.78 0 2.52l5.13 6.33-2.7 7.72c-.3.9.05 1.9.87 2.37l6.94 4.15.08 8.2c0 .94.7 1.76 1.63 1.94l7.9 1.48 2.82 7.66c.33.9 1.26 1.44 2.2 1.28l7.93-1.33 5.23 6.2c.63.73 1.7.9 2.53.43l7-4 7 4c.3.18.65.27 1 .27.56 0 1.12-.25 1.52-.7l5.23-6.2 7.92 1.32c.96.16 1.88-.38 2.2-1.28l2.83-7.66 7.9-1.5c.95-.17 1.63-.98 1.64-1.94l.08-8.2 6.94-4.15c.82-.5 1.18-1.5.87-2.38l-2.7-7.73 5.13-6.34c.6-.74.6-1.78 0-2.52zm-8.94 7.2c-.43.54-.56 1.26-.33 1.9l2.5 7.26-6.5 3.9c-.6.35-.96 1-.97 1.7l-.08 7.66-7.4 1.4c-.7.13-1.26.62-1.5 1.28l-2.65 7.16-7.4-1.24c-.7-.12-1.42.14-1.87.68l-4.9 5.8-6.53-3.76c-.3-.18-.66-.26-1-.26s-.7.08-1 .26l-6.54 3.75-4.9-5.8c-.44-.53-1.15-.8-1.85-.67l-7.4 1.24-2.64-7.16c-.25-.66-.82-1.15-1.5-1.28l-7.42-1.4-.08-7.67c0-.7-.37-1.35-.97-1.7l-6.5-3.9 2.5-7.24c.24-.66.1-1.38-.32-1.92l-4.8-5.94 4.8-5.94c.43-.54.56-1.26.33-1.9l-2.5-7.26 6.5-3.9c.6-.35.96-1 .97-1.7l.08-7.66 7.4-1.4c.7-.13 1.26-.62 1.5-1.28l2.65-7.16 7.4 1.24c.7.12 1.42-.14 1.87-.68l4.9-5.8 6.53 3.76c.62.35 1.38.35 2 0l6.54-3.75 4.9 5.8c.44.53 1.15.8 1.85.67l7.4-1.24 2.64 7.16c.25.66.82 1.15 1.5 1.28l7.42 1.4.08 7.67c0 .7.37 1.35.97 1.7l6.5 3.9-2.5 7.24c-.24.66-.1 1.38.32 1.92l4.8 5.94-4.8 5.94zM-381.8 582c.7 0 1.37-.36 1.74-1 2.8-4.85 7.3-8.42 12.64-10.05 1.06-.32 1.65-1.44 1.33-2.5-.3-1.05-1.42-1.65-2.48-1.33-6.32 1.93-11.62 6.14-14.94 11.88-.55.96-.23 2.18.73 2.73.32.18.67.27 1 .27zM-361 558c-18.75 0-34 15.25-34 34 0 7.43 2.35 14.48 6.8 20.4.66.9 1.92 1.07 2.8.4.88-.66 1.06-1.9.4-2.8-3.93-5.22-6-11.45-6-18 0-16.54 13.46-30 30-30s30 13.46 30 30-13.46 30-30 30c-1.1 0-2 .9-2 2s.9 2 2 2c18.75 0 34-15.25 34-34s-15.25-34-34-34z" class="st0"/><circle cx="-381" cy="617" r="2" class="st0"/><circle cx="-360" cy="568" r="2" class="st0"/><path d="M-343.58 589.4c.78-.78.77-2.04 0-2.8l-7-7c-.8-.8-2.05-.8-2.83 0l-10.6 10.57-4.6-4.58c-.77-.8-2.03-.8-2.8 0l-7 7c-.4.36-.6.87-.6 1.4s.22 1.05.6 1.42l13.2 13c.4.4.9.58 1.4.58.52 0 1.03-.2 1.42-.6l18.8-19zm-20.24 14.77L-374.16 594l4.16-4.17 4.6 4.58c.77.8 2.03.8 2.8 0l10.6-10.57 4.18 4.18-16 16.17zM-95 428c1.1 0 2-.9 2-2s-.9-2-2-2c-10.88 0-20.43 7.66-22.7 18.22-.24 1.07.44 2.14 1.52 2.37.15.02.3.04.43.04.92 0 1.75-.64 1.95-1.58C-111.9 434.33-104 428-95 428z" class="st0"/><ellipse cx="-116.001" cy="450.033" class="st0" rx="1.999" ry="1.967"/><path d="M-45.23 483.87l-1.17-1.17c-.2-.2-.46-.34-.73-.44l-13.55-13.75c3.7-6.18 5.68-13.23 5.68-20.5 0-3.84 0-11-5.34-20.02-.56-.95-1.8-1.26-2.74-.7-.95.56-1.27 1.8-.7 2.74C-59 438.12-59 444.3-59 448c0 7.12-2.07 14-6 19.9-6.7 10.08-17.9 16.1-30 16.1-19.85 0-36-16.15-36-36s16.15-36 36-36c3.55 0 7.06.5 10.42 1.53 1.06.32 2.17-.28 2.5-1.34.3-1.06-.3-2.18-1.34-2.5-3.74-1.13-7.64-1.7-11.58-1.7-22.06 0-40 17.94-40 40s17.94 40 40 40c6.86 0 13.46-1.75 19.27-4.95l1.3 1.34c.38.4.9.6 1.43.6.5 0 1-.2 1.4-.56.78-.77.8-2.04.04-2.83l-.7-.7c3.54-2.44 6.7-5.46 9.32-9l12.55 12.74-1.37 1.38-7.65 7.6-6.18-6.05c-.8-.77-2.05-.76-2.83.03s-.76 2.06.03 2.83l8.16 8c2.6 2.53 5.9 3.84 9 3.84.13 0 .25-.02.38-.02.04 0 .08 0 .12 0 2.62 0 5.02-.94 6.75-2.66 1.74-1.73 2.7-4.12 2.7-6.74 0-3.23-1.44-6.5-3.93-9zm-11.03 12.26l8.6-8.58c2.33 3.04 2.58 7.04.4 9.2-.96.96-2.28 1.45-3.72 1.5-1.84-.07-3.72-.8-5.28-2.12z" class="st0"/><circle cx="-76" cy="415" r="2" class="st0"/><path d="M-95 480c17.65 0 32-14.36 32-32s-14.35-32-32-32-32 14.36-32 32c0 10.16 4.67 19.5 12.8 25.6.88.67 2.14.5 2.8-.4.66-.88.48-2.13-.4-2.8-7.12-5.34-11.2-13.5-11.2-22.4 0-15.44 12.56-28 28-28s28 12.56 28 28-12.56 28-28 28c-1.1 0-2 .9-2 2s.9 2 2 2zM-470 680h-52c-3.3 0-6 2.7-6 6v84c0 3.3 2.7 6 6 6h52c3.3 0 6-2.7 6-6v-58c0-1.1-.9-2-2-2s-2 .9-2 2v2h-34c-1.1 0-2 .9-2 2s.9 2 2 2h34v52c0 1.1-.9 2-2 2h-52c-1.1 0-2-.9-2-2v-52h2c1.1 0 2-.9 2-2s-.9-2-2-2h-2v-28c0-1.1.9-2 2-2h52c1.22 0 2 .66 2 1v3c0 1.1.9 2 2 2s2-.9 2-2v-3c0-2.76-2.7-5-6-5zM-472 707v-16c0-1.65-1.35-3-3-3h-42c-1.65 0-3 1.35-3 3v16c0 1.65 1.35 3 3 3h42c1.65 0 3-1.35 3-3zm-4-1h-40v-14h40v14zM-506 725c0-1.65-1.35-3-3-3h-6c-1.65 0-3 1.35-3 3v6c0 1.65 1.35 3 3 3h6c1.65 0 3-1.35 3-3v-6zm-4 5h-4v-4h4v4zM-499 734h6c1.65 0 3-1.35 3-3v-6c0-1.65-1.35-3-3-3h-6c-1.65 0-3 1.35-3 3v6c0 1.65 1.35 3 3 3zm1-8h4v4h-4v-4zM-483 734h6c1.65 0 3-1.35 3-3v-6c0-1.65-1.35-3-3-3h-6c-1.65 0-3 1.35-3 3v6c0 1.65 1.35 3 3 3zm1-8h4v4h-4v-4zM-506 741c0-1.65-1.35-3-3-3h-6c-1.65 0-3 1.35-3 3v6c0 1.65 1.35 3 3 3h6c1.65 0 3-1.35 3-3v-6zm-4 5h-4v-4h4v4zM-502 747c0 1.65 1.35 3 3 3h6c1.65 0 3-1.35 3-3v-6c0-1.65-1.35-3-3-3h-6c-1.65 0-3 1.35-3 3v6zm4-5h4v4h-4v-4zM-486 747c0 1.65 1.35 3 3 3h6c1.65 0 3-1.35 3-3v-6c0-1.65-1.35-3-3-3h-6c-1.65 0-3 1.35-3 3v6zm4-5h4v4h-4v-4zM-509 754h-6c-1.65 0-3 1.35-3 3v6c0 1.65 1.35 3 3 3h6c1.65 0 3-1.35 3-3v-6c0-1.65-1.35-3-3-3zm-1 8h-4v-4h4v4zM-502 763c0 1.65 1.35 3 3 3h22c1.65 0 3-1.35 3-3v-6c0-1.65-1.35-3-3-3h-22c-1.65 0-3 1.35-3 3v6zm4-5h20v4h-20v-4z" class="st0"/><circle cx="-514" cy="716" r="2" class="st0"/><circle cx="-466" cy="696" r="2" class="st0"/><path d="M-180 748h-4v-28c0-1.1-.9-2-2-2s-2 .9-2 2v28h-72v-52h72v7c0 1.1.9 2 2 2s2-.9 2-2v-7c0-2.2-1.8-4-4-4h-72c-2.2 0-4 1.8-4 4v52h-4c-2.2 0-4 1.8-4 4v4c0 2.2 1.8 4 4 4h88c2.2 0 4-1.8 4-4v-4c0-2.2-1.8-4-4-4zm0 8h-88v-4h88v4zm0 2v-2 2zM-253 700c-1.65 0-3 1.35-3 3v15c0 1.1.9 2 2 2s2-.9 2-2v-14h38c1.1 0 2-.9 2-2s-.9-2-2-2h-39z" class="st0"/><circle cx="-206" cy="702" r="2" class="st0"/><circle cx="-186" cy="711" r="2" class="st0"/><path d="M-316 688h-88c-2.2 0-4 1.8-4 4v60c0 2.2 1.8 4 4 4h32v8h-6c-1.1 0-2 .9-2 2s.9 2 2 2h36c1.1 0 2-.9 2-2s-.9-2-2-2h-6v-8h32c2.2 0 4-1.8 4-4v-34c0-1.1-.9-2-2-2s-2 .9-2 2v26h-88v-52h88v6c0 1.1.9 2 2 2s2-.9 2-2v-6c0-2.2-1.8-4-4-4zm-36 76h-16v-8h4v2c0 1.1.9 2 2 2s2-.9 2-2v-2h8v8zm36-16v4h-88v-4h88zM-397 696c-1.65 0-3 1.35-3 3v27c0 1.1.9 2 2 2s2-.9 2-2v-26h42c1.1 0 2-.9 2-2s-.9-2-2-2h-43z" class="st0"/><circle cx="-346" cy="698" r="2" class="st0"/><circle cx="-314" cy="706" r="2" class="st0"/><circle cx="-62" cy="694" r="2" class="st0"/><path d="M-44 752v-56c0-2.2-1.8-4-4-4h-6c-1.1 0-2 .9-2 2s.9 2 2 2h6v56h-56.35c.22-.63.35-1.3.35-2 0-3.3-2.7-6-6-6h-8c-3.3 0-6 2.7-6 6 0 .7.13 1.37.35 2H-128v-56h50c1.1 0 2-.9 2-2s-.9-2-2-2h-50c-2.2 0-4 1.8-4 4v56c-2.2 0-4 1.8-4 4v4c0 2.2 1.8 4 4 4h88c2.2 0 4-1.8 4-4v-4c0-2.2-1.8-4-4-4zm-76-2c0-1.1.9-2 2-2h8c1.1 0 2 .9 2 2s-.9 2-2 2h-8c-1.1 0-2-.9-2-2zm76 10h-88v-4h88v4zm0 2v-2 2zM-109.94 718.2c.6-.1 1.14-.13 1.65-.13 1.06 0 2.13.15 3.24.45.15.04.3.06.43.06.42 0 .77-.15 1.05-.47.24-.26.37-.58.37-.93 0-.63-.33-1.06-.96-1.3-1.03-.4-2.4-.6-4.13-.6-.62 0-1.3.05-2 .15-.73.1-1.48.25-2.28.45-.25-.17-.53-.26-.83-.26-.96 0-1.44.53-1.44 1.57 0 .24.03.6.1 1.06.07.47.1.82.1 1.06 0 .9-.06 2.27-.2 4.1-.13 1.84-.2 3.22-.2 4.14 0 2.2.38 3.64 1.12 4.3.68.6 2.13.9 4.36.9 2.15 0 3.57-.06 4.26-.2.8-.14 1.2-.6 1.2-1.37 0-.45-.17-.8-.5-1.06-.27-.22-.6-.33-1-.33-.13 0-.33.02-.6.06s-.47.06-.6.06c-.43 0-1.07 0-1.92.02s-1.5.04-1.92.04c-.78 0-1.2-.05-1.3-.14-.15-.18-.23-.95-.23-2.28 0-.54.03-1.24.08-2.1 1.96-.16 3.42-.3 4.4-.4 1.08-.1 1.9-.17 2.45-.2.86-.12 1.3-.58 1.3-1.4 0-.42-.15-.76-.43-1.02-.3-.25-.63-.38-1.04-.38-.35 0-1.17.06-2.48.2-2.3.22-3.63.35-4 .37.05-1.78.08-3.13.08-4.04.67-.16 1.3-.28 1.88-.37zM-92.63 721.83c-.24-.22-.54-.33-.92-.33l-4.65-.02h-.3c-.16 0-.28 0-.36 0-1.32 0-1.97.4-1.97 1.23 0 .35.12.63.35.87s.55.35.92.35c.15 0 .38 0 .68-.03s.52-.03.67-.03h4.65c.38 0 .68-.1.92-.33.25-.23.37-.5.37-.86s-.12-.62-.36-.85zM-93.58 726.5c-.46 0-1.13 0-2.04-.03-.9 0-1.57-.02-2.02-.02-.57 0-1.22.02-1.93.07-.84.05-1.26.45-1.26 1.2 0 .34.12.63.38.85.26.22.58.33.97.33.2 0 .5 0 .92-.04.4-.02.7-.03.92-.03.45 0 1.12 0 2.02.02.9.02 1.58.03 2.04.03.38 0 .7-.1.94-.34.25-.23.38-.5.38-.85s-.13-.64-.38-.86c-.25-.23-.56-.34-.94-.34zM-78.1 720.95c-.58 0-1.13.1-1.63.28s-.97.46-1.4.83c-.48-.8-1.25-1.2-2.3-1.2-.93 0-1.9.6-2.94 1.8.07-.74.1-1.03.1-.9 0-.34-.15-.67-.46-.97-.3-.3-.64-.45-1.02-.45-.5 0-.86.3-1.13.92-.22.5-.33 1.04-.33 1.65 0 .34 0 .84.03 1.5s.04 1.16.04 1.5v3.82c0 .74.08 1.3.22 1.63.2.5.6.76 1.17.76.4 0 .74-.1 1.02-.3.28-.2.44-.5.44-.87 0-.16 0-.4.02-.72 0-.33.02-.6.02-.78 0-.78 0-1.87.04-3.25.08-.08.14-.16.17-.2.8-1.07 1.6-1.83 2.38-2.3.08.27.1.62.1 1.06 0 .78.1 1.92.27 3.44.16 1.5.25 2.66.25 3.44 0 .4.13.7.4.97s.6.4 1 .4.76-.13 1.03-.4.4-.57.4-.96c0-.75-.1-1.87-.3-3.37-.17-1.46-.27-2.58-.27-3.36.26-.22.67-.5 1.23-.8s.9-.47 1.07-.47c.3 0 .52.6.7 1.83.1.6.2 1.6.35 3 .13 1.28.25 2.28.38 2.98.13.78.6 1.17 1.38 1.17.4 0 .74-.12 1.04-.37s.42-.57.4-.96c-.3-2.6-.55-4.43-.74-5.54-.2-1.58-.35-2.5-.44-2.78-.48-1.33-1.4-2-2.73-2zM-68 732.38c.67 0 1.5-.24 2.55-.7 1.16-.55 1.74-1.08 1.74-1.6 0-.35-.14-.66-.4-.93-.26-.26-.58-.4-.95-.4-.18 0-.6.18-1.26.53-.67.35-1.23.52-1.7.52-.8 0-1.45-.2-1.94-.58-.52-.4-.78-.98-.78-1.7s.3-1.58.88-2.58c.62-1.03 1.2-1.55 1.72-1.55.82 0 1.44.15 1.86.47.4.32.76.48 1.06.48.4 0 .7-.14.95-.42.23-.26.35-.56.35-.9 0-.6-.58-1.16-1.73-1.63-.95-.38-1.78-.57-2.5-.57-1.44 0-2.72.83-3.8 2.48-.97 1.46-1.45 2.86-1.45 4.22 0 1.48.53 2.67 1.6 3.57 1.02.85 2.28 1.27 3.8 1.27zM-63.14 712.12c-.25.22-.38.5-.38.8 0 .3.14.57.4.74.2.12.43.2.7.2.15 0 .42-.08 1.1-.62.63-.5 1.16-.67 1.75-.32.2.12.25.2.25.23 0 .5-.27.93-.82 1.32l-1.57 1.04c-.6.4-1.03.8-1.3 1.22-.35.53-.52 1.2-.52 1.97 0 .4.04.7.13.92.13.26.4.58.96.58.03 0 .08 0 .14.02.1.02.18.03.23.03.17 0 .4-.02.7-.06.3-.05.52-.07.66-.07h1.7c.1 0 .23.03.4.06.24.02.4.04.5.04.3 0 .56-.1.76-.32.2-.2.28-.44.28-.7 0-.4-.25-.7-.76-.93-.36-.17-.72-.25-1.1-.25-.36 0-.96.02-1.8.07-.24.02-.45.04-.62.05.14-.42.48-.8 1.02-1.16.5-.3.97-.6 1.47-.9.54-.38.95-.77 1.2-1.16.33-.5.5-1.12.5-1.83 0-.74-.35-1.34-1.05-1.8-1.05-.7-2.44-.8-3.66-.13-.36.2-.8.52-1.28.95zM93.7 769.77c-.07-.96-.4-1.97-.96-2.97l-3.05-5.3-1.14-2.12c-1.77-3.38-2.72-4.96-3.4-5.7L79.6 744c-.55-.95-1.77-1.28-2.73-.73s-1.3 1.77-.74 2.73l4.04 7h-8.35c-.96-5.67-5.9-10-11.82-10s-10.86 4.33-11.82 10H15.83l18.9-32.8c1.84-3.18 3.27-8.53 3.27-12.2v-16h2c1.1 0 2-.9 2-2s-.9-2-2-2h-4c-1.1 0-2-.9-2-2s.9-2 2-2h24c1.1 0 2 .9 2 2s-.9 2-2 2H48c-1.1 0-2 .9-2 2s.9 2 2 2h10v16c0 3.66 1.13 8.5 2.57 11l2.3 4c.38.64 1.05 1 1.74 1 .35 0 .7-.08 1-.26.97-.56 1.3-1.78.74-2.74l-2.3-4c-1.1-1.88-2.04-6.1-2.04-9v-16.35c2.33-.83 4-3.04 4-5.65 0-3.3-2.7-6-6-6H36c-3.3 0-6 2.7-6 6 0 2.6 1.67 4.82 4 5.65V708c0 2.96-1.25 7.63-2.73 10.2l-28 48.6c-.76 1.3-1.07 2.63-.94 3.84-.1 1.02.1 2 .58 2.83.94 1.6 2.8 2.53 5.1 2.53h80c2.3 0 4.16-.92 5.13-2.53.65-1.07.83-2.36.56-3.7zM60 747c4.4 0 8 3.6 8 8 0 1.1.9 2 2 2h12.47l3.7 6.44 3.27 6.18c.1.22.2.42.25.62-.02.1-.04.17-.07.23-.14.25-.66.53-1.63.53H8c-.9 0-1.4-.25-1.58-.48.07-.2.16-.44.32-.7l4.98-8.63c1.15-1.98 2.07-3.44 2.6-4.2H50c1.1 0 2-.9 2-2 0-4.4 3.6-8 8-8zM33 738c0 4.4 3.6 8 8 8s8-3.6 8-8-3.6-8-8-8-8 3.6-8 8zm12 0c0 2.2-1.8 4-4 4s-4-1.8-4-4 1.8-4 4-4 4 1.8 4 4zM56 723c0-3.3-2.7-6-6-6s-6 2.7-6 6 2.7 6 6 6 6-2.7 6-6zm-8 0c0-1.1.9-2 2-2s2 .9 2 2-.9 2-2 2-2-.9-2-2zM35 764H17c-1.1 0-2 .9-2 2s.9 2 2 2h18c1.1 0 2-.9 2-2s-.9-2-2-2z" class="st0"/><circle cx="43" cy="766" r="2" class="st0"/><circle cx="68" cy="729" r="2" class="st0"/><path d="M-467.5 897.28c.12-.17.25-.35.38-.53.14-.2.28-.43.43-.65.15-.23.3-.45.44-.68.13-.2.26-.4.38-.62.15-.25.3-.5.44-.76.1-.2.22-.4.33-.6.13-.28.27-.55.4-.83.1-.18.2-.38.3-.57.16-.33.3-.66.45-1 .16-.35.3-.7.45-1.08.1-.24.2-.48.3-.72.1-.3.2-.6.3-.9.07-.18.13-.36.2-.55.1-.33.2-.66.3-1 .02-.07.05-.15.07-.24 0 0 0-.02 0-.04.86-3.02 1.33-6.2 1.33-9.5 0-2.5-.27-5-.8-7.42-.22-1.08-1.28-1.77-2.37-1.54-1.08.24-1.76 1.3-1.53 2.38.46 2.15.7 4.36.7 6.58 0 2.4-.28 4.75-.8 7h-7.37c-.95-5.67-5.9-10-11.83-10s-10.88 4.33-11.83 10h-29.36c-.52-2.25-.8-4.6-.8-7 0-13.57 8.68-25.44 21.6-29.55.84-.26 1.4-1.03 1.4-1.9V828c1.1 0 2-.9 2-2s-.9-2-2-2h-4c-1.1 0-2-.9-2-2s.9-2 2-2h24c1.1 0 2 .9 2 2s-.9 2-2 2h-12c-1.1 0-2 .9-2 2s.9 2 2 2h8v17.55c0 .87.56 1.64 1.4 1.9 3 .96 5.85 2.37 8.45 4.2.35.25.75.37 1.15.37.63 0 1.24-.3 1.63-.85.64-.9.42-2.15-.48-2.8-2.53-1.77-5.26-3.2-8.15-4.25V828c3.3 0 6-2.7 6-6s-2.7-6-6-6h-24c-3.3 0-6 2.7-6 6s2.7 6 6 6v16.12c-13.82 5.02-23 18.06-23 32.88 0 3.3.47 6.48 1.32 9.5 0 .02 0 .03 0 .04.03.1.06.17.08.25.1.32.2.65.3.98.07.2.13.37.2.56.1.3.2.6.3.9.1.24.2.48.3.72.14.36.3.7.44 1.06.15.34.3.68.46 1 .1.2.2.4.3.6.13.27.27.54.4.8.12.22.23.42.34.62.15.25.3.5.44.76.12.2.25.4.38.62.14.23.3.45.43.68.14.22.28.44.42.65.13.18.26.36.38.53.7 1 1.46 1.94 2.26 2.84 0 .02.02.03.04.05 5.2 5.86 12.3 9.97 20.36 11.33.04 0 .08.02.12.03.35.05.7.1 1.05.15.2.03.42.05.62.08.3.03.57.06.85.1.3.02.62.04.93.06.2 0 .43.03.64.04.54.02 1.08.04 1.63.04s1.1-.02 1.63-.04c.2 0 .43-.03.64-.04.3-.02.62-.04.93-.07.28-.03.56-.06.85-.1.2-.02.4-.04.62-.07.35-.05.7-.1 1.05-.15.04 0 .08-.02.12-.03 8.05-1.36 15.17-5.47 20.36-11.33.02-.02.03-.03.04-.05.8-.9 1.55-1.85 2.26-2.84zM-495 888c1.1 0 2-.9 2-2 0-4.4 3.6-8 8-8s8 3.6 8 8c0 1.1.9 2 2 2h7.98c-.02.05-.04.1-.06.14-.25.64-.52 1.28-.8 1.9-.04.07-.07.14-.1.2-.3.65-.63 1.27-.98 1.9-.06.1-.12.2-.2.32-.72 1.26-1.52 2.46-2.4 3.6-.06.05-.1.1-.15.16-5.25 6.6-13.07 10.93-21.7 11.66-.14 0-.28.02-.42.03-.72.07-1.45.1-2.18.1s-1.46-.03-2.18-.1c-.14 0-.28 0-.42-.02-8.63-.73-16.45-5.06-21.7-11.66-.04-.05-.08-.1-.13-.17-.9-1.13-1.7-2.33-2.42-3.6-.07-.1-.13-.2-.2-.32-.34-.62-.67-1.24-.97-1.88-.03-.07-.06-.14-.1-.2-.28-.63-.55-1.27-.8-1.9-.02-.06-.04-.1-.06-.15H-495z" class="st0"/><circle cx="-471" cy="855" r="2" class="st0"/><circle cx="-507" cy="855" r="2" class="st0"/><path d="M-505 880c4.4 0 8-3.6 8-8s-3.6-8-8-8-8 3.6-8 8 3.6 8 8 8zm0-12c2.2 0 4 1.8 4 4s-1.8 4-4 4-4-1.8-4-4 1.8-4 4-4zM-487 857c0-3.3-2.7-6-6-6s-6 2.7-6 6 2.7 6 6 6 6-2.7 6-6zm-8 0c0-1.1.9-2 2-2s2 .9 2 2-.9 2-2 2-2-.9-2-2zM-511.53 857.3c-.75-.8-2.02-.85-2.83-.1-5.5 5.1-8.64 12.3-8.64 19.8 0 1.1.9 2 2 2s2-.9 2-2c0-6.38 2.68-12.52 7.36-16.86.8-.76.86-2.02.1-2.83zM-491 903c.1 0 .2 0 .28-.02.32-.05 7.83-1.18 13.26-7.7.7-.85.6-2.1-.26-2.82-.85-.7-2.1-.6-2.82.26-4.4 5.3-10.68 6.3-10.75 6.3-1.08.16-1.84 1.17-1.68 2.26.14 1 1 1.72 1.98 1.72zM-343.1 899.7c10.13-5.1 17.1-15.6 17.1-27.7 0-2.16-.22-4.32-.66-6.4-.23-1.1-1.3-1.78-2.37-1.56-1.08.23-1.78 1.3-1.55 2.37.4 1.84.58 3.72.58 5.6 0 14.9-12.1 27-27 27-5.05 0-9.92-1.4-14.14-4H-357c12.68 0 23-10.32 23-23 0-9.52-6-18.1-14.78-21.48l1.14-3.85c1.94.72 3.8 1.66 5.54 2.8.34.23.72.34 1.1.34.65 0 1.28-.3 1.67-.88.6-.92.36-2.17-.56-2.78-2.06-1.37-4.28-2.47-6.6-3.3l4.76-16.18c.32-1.06-.3-2.17-1.35-2.48l-19.17-5.66c-1.06-.32-2.17.3-2.48 1.35l-1.14 3.83c-.3 1.06.3 2.18 1.36 2.5 1.06.3 2.18-.3 2.5-1.36l.56-1.92 15.34 4.53-1.13 3.84-8.63-2.56c-1.06-.3-2.18.3-2.5 1.35-.3 1.05.3 2.16 1.36 2.47l8.64 2.55-2.43 8.2c-.03.1-.07.16-.1.25 0 .07-.02.14-.03.2l-5.37 18.2-1.92-.56-9.74-2.87-3.68-1.08 5.1-17.27c.3-1.06-.3-2.17-1.35-2.48-1.06-.32-2.17.3-2.5 1.35l-5.65 19.18c-.3 1.06.3 2.17 1.35 2.48l2.34.7-.27 6.68c-.04.92.55 1.75 1.43 2l7.67 2.27c.2.06.38.08.57.08.7 0 1.36-.36 1.72-.98l3.4-5.76 2.33.68c.2.05.38.08.57.08.86 0 1.66-.56 1.92-1.43l3.14-10.66c7.1 2.86 11.92 9.87 11.92 17.63 0 10.14-8 18.42-18 18.95V887c0-2.2-1.8-4-4-4h-22c-2.2 0-4 1.8-4 4v4c0 2.2 1.8 4 4 4h4.24c2.1 1.88 4.4 3.46 6.84 4.7-3.92 2.23-7.26 5.36-9.76 9.2-.4.63-.43 1.4-.08 2.06.35.64 1.03 1.04 1.76 1.04h12.06c.62 0 1.2-.28 1.58-.76 2.1-2.7 5.16-4.24 8.36-4.24s6.25 1.54 8.36 4.24c.38.48.96.76 1.58.76H-335c.73 0 1.4-.4 1.76-1.04.35-.65.32-1.43-.08-2.05-2.5-3.84-5.85-6.97-9.78-9.2zm-20.83-31.63l-4.68-1.38.16-4.13 6.6 1.95-2.1 3.55zM-382 887h22v4h-22v-4zm35.87 21c-2.85-3.2-6.76-5-10.87-5s-8.02 1.8-10.87 5h-7.1c2.42-2.68 5.4-4.78 8.74-6.17.1-.04.2-.1.28-.15 2.87.87 5.88 1.32 8.95 1.32 3.1 0 6.1-.47 8.95-1.32.1.05.18.1.28.15 3.35 1.4 6.32 3.5 8.73 6.17h-7.1z" class="st0"/><circle cx="-336" cy="852" r="2" class="st0"/><path d="M-366.8 833.86c.2.06.38.08.57.08.86 0 1.66-.56 1.9-1.43.33-1.05-.28-2.16-1.34-2.48-.2-.05-.38-.08-.56-.08-.87 0-1.66.57-1.92 1.44-.3 1.06.3 2.17 1.35 2.48zM-56 824h-17v-4c0-2.2-1.8-4-4-4h-22c-2.2 0-4 1.8-4 4v4h-17c-2.2 0-4 1.8-4 4v80c0 2.2 1.8 4 4 4h64c2.2 0 4-1.8 4-4v-54c0-1.1-.9-2-2-2s-2 .9-2 2v54h-64v-80h64v2c0 1.1.9 2 2 2s2-.9 2-2v-2c0-2.2-1.8-4-4-4zm-43 0v-4h22v4h-22zM-90 904h26c2.2 0 4-1.8 4-4v-64c0-2.2-1.8-4-4-4h-48c-2.2 0-4 1.8-4 4v64c0 2.2 1.8 4 4 4h2c1.1 0 2-.9 2-2s-.9-2-2-2h-2v-64h48v64h-26c-1.1 0-2 .9-2 2s.9 2 2 2zM-94 848h15c1.1 0 2-.9 2-2s-.9-2-2-2h-15c-1.1 0-2 .9-2 2s.9 2 2 2zM-92 890c0-1.1-.9-2-2-2h-8c-1.1 0-2 .9-2 2s.9 2 2 2h8c1.1 0 2-.9 2-2zM-94 856h20c1.1 0 2-.9 2-2s-.9-2-2-2h-20c-1.1 0-2 .9-2 2s.9 2 2 2zM-94 864h20c1.1 0 2-.9 2-2s-.9-2-2-2h-20c-1.1 0-2 .9-2 2s.9 2 2 2zM-94 872h16c1.1 0 2-.9 2-2s-.9-2-2-2h-16c-1.1 0-2 .9-2 2s.9 2 2 2zM-94 880h20c1.1 0 2-.9 2-2s-.9-2-2-2h-20c-1.1 0-2 .9-2 2s.9 2 2 2z" class="st0"/><circle cx="-102" cy="846" r="2" class="st0"/><circle cx="-54" cy="838" r="2" class="st0"/><circle cx="-102" cy="854" r="2" class="st0"/><circle cx="-102" cy="862" r="2" class="st0"/><circle cx="-102" cy="870" r="2" class="st0"/><circle cx="-102" cy="878" r="2" class="st0"/><circle cx="-102" cy="902" r="2" class="st0"/><path d="M90.78 26.2c-.5-.97-1.7-1.36-2.7-.86-.97.5-1.36 1.7-.86 2.7C90.4 34.23 92 40.96 92 48c0 24.26-19.74 44-44 44S4 72.26 4 48 23.74 4 48 4c8.52 0 16.8 2.44 23.9 7.06.93.6 2.17.33 2.77-.6s.34-2.16-.6-2.76C66.33 2.66 57.3 0 48 0 21.53 0 0 21.53 0 48s21.53 48 48 48 48-21.53 48-48c0-7.67-1.76-15-5.22-21.8zM8 48c0 22.06 17.94 40 40 40s40-17.94 40-40S70.06 8 48 8 8 25.94 8 48zm75.94-2H82c-1.1 0-2 .9-2 2s.9 2 2 2h1.94c-1 18.26-15.68 32.94-33.94 33.94V82c0-1.1-.9-2-2-2s-2 .9-2 2v1.94c-18.26-1-32.94-15.68-33.94-33.94H14c1.1 0 2-.9 2-2s-.9-2-2-2h-1.94c1-18.26 15.68-32.94 33.94-33.94V14c0 1.1.9 2 2 2s2-.9 2-2v-1.94c18.26 1 32.94 15.68 33.94 33.94zM34.2 20.12c-5.12 2.2-9.56 5.8-12.83 10.35-.64.9-.43 2.15.47 2.8.35.24.76.36 1.16.36.62 0 1.24-.3 1.63-.83 2.83-3.97 6.7-7.08 11.16-9 1-.44 1.47-1.6 1.04-2.63-.44-1-1.62-1.48-2.63-1.05z" class="st0"/><circle cx="20" cy="38" r="2" class="st0"/><circle cx="79" cy="14" r="2" class="st0"/><path d="M50 40.26V22c0-1.1-.9-2-2-2s-2 .9-2 2v18.26c-3.44.9-6 4.02-6 7.74 0 4.16 3.2 7.6 7.27 7.96l17.5 13.62c.36.28.8.42 1.23.42.5 0 1.03-.2 1.4-.6l2-2c.73-.7.8-1.83.18-2.63l-13.62-17.5c-.3-3.4-2.74-6.17-5.96-7zM44 48c0-2.2 1.8-4 4-4s4 1.8 4 4-1.8 4-4 4-4-1.8-4-4zm8.25 6.77c1-.64 1.88-1.5 2.52-2.52L63.6 63.6l-11.35-8.83zM-485.93-120.2c-.23-.08-.47-.12-.7-.12-.8 0-1.58.5-1.87 1.3-.4 1.04.14 2.2 1.18 2.57.23.1.46.13.7.13.8 0 1.57-.5 1.87-1.3.38-1.04-.15-2.2-1.18-2.58zM-453-93c0-19.04-12.22-35.57-30.42-41.13l-.32-.1c-2.35-.72-3.23-1-6.07-1.26-1.1-.1-2.08.7-2.2 1.8-.1 1.1.7 2.08 1.8 2.2 2.44.23 3.05.4 5.3 1.1l.3.1c.1.02.16.05.24.07l-1.27 3.8C-489-127.46-492.48-128-496-128c-14.57 0-27.76 9.18-32.82 22.85-3.25 8.77-2.9 18.28 1.02 26.77 3.56 7.75 9.7 13.8 17.4 17.27l-1.28 3.8c-1.47-.64-2.9-1.37-4.3-2.2-.94-.56-2.17-.25-2.74.7-.57.94-.26 2.17.7 2.74 3.84 2.3 8.03 3.95 12.38 4.95-3.18 1.93-5.8 4.77-7.46 8.24-.3.62-.25 1.35.12 1.93.36.58 1 .93 1.7.93h31.57c.68 0 1.32-.35 1.68-.93.37-.58.4-1.3.12-1.93-1.7-3.57-4.43-6.47-7.73-8.4C-466.9-55.94-453-72.87-453-93zm-57.58 27.35c-.08-.14-6.9-13.02-.45-30.78l12.46 4.6-2.8 7.56c-2.43-.76-4.16-1-6.38-1.3-1.1-.14-2.1.62-2.25 1.72-.14 1.1.62 2.1 1.72 2.25 2.08.28 3.53.47 5.53 1.1l-5.86 15.8c-.68-.3-1.34-.6-1.98-.95zm18.05-36.73c4.92 1.82 9.4 2.6 13.27 2.76-.27 3.15-.84 6.52-1.84 10l-12.33-4.56.7-1.88c.38-1.03-.15-2.18-1.2-2.57-1.02-.38-2.17.15-2.56 1.18l-.68 1.88-12.33-4.56c1.5-3.3 3.26-6.22 5.1-8.8 3.06 2.4 6.95 4.73 11.87 6.55zm10.17 16.56c-1.34 3.54-2.95 6.6-4.68 9.2-2.74-2.24-6.22-4.45-10.57-6.26l2.78-7.55 12.46 4.6zm-16.64 6.7c3.96 1.67 7.1 3.7 9.58 5.76-6.33 7.84-13.16 10.55-13.3 10.6-.02 0-.02.02-.03.02-.7-.16-1.4-.35-2.1-.56l5.85-15.83zm12.55 8.5c2.1 2.2 3.4 4.16 4.15 5.4-4.13 2.06-8.74 3.2-13.52 3.22 2.72-1.82 6.1-4.6 9.37-8.6zm7.62 3.4c-.93-1.6-2.57-4.04-5.2-6.67 2-2.95 3.88-6.44 5.42-10.53l1.6.6c.23.08.46.12.7.12.8 0 1.57-.5 1.87-1.32.38-1.03-.15-2.18-1.18-2.57l-1.74-.63c1.18-4 1.83-7.84 2.12-11.42 4.1-.25 7.2-1.1 9.06-1.75 1.6 5.64 1.56 11.6-.14 17.26l-1.8-.67c-1.05-.4-2.2.13-2.58 1.17-.38 1.04.15 2.2 1.18 2.57l1.8.67c-2.42 5.44-6.33 9.96-11.13 13.17zm3.8-36.48c.06-5.47-.64-10.08-1.36-13.32 3.63 2.95 6.56 6.7 8.57 11.07.1.26.22.52.33.77-1.5.52-4.1 1.23-7.53 1.48zm-6.42-16.67c.43 1.27 2.5 7.8 2.4 16.73-3.02-.13-6.45-.65-10.2-1.84l1.72-4.64c.38-1.04-.15-2.2-1.18-2.57-1.05-.38-2.2.15-2.58 1.2l-1.72 4.63c-3.6-1.53-6.56-3.37-8.92-5.23 5.73-6.85 11.57-10.48 12.7-11.15 1.35.3 2.67.7 3.98 1.18 1.3.48 2.57 1.06 3.8 1.7zm-13.8-3.62c-2.66 2-6.2 5.04-9.7 9.23-2.44-2.42-3.94-4.65-4.75-6.02 4.18-2.06 8.86-3.2 13.7-3.2.25 0 .5 0 .74 0zm-17.92 5.23c1 1.7 2.8 4.36 5.73 7.2-2.1 2.9-4.13 6.24-5.83 10.04l-11.04-4.08c2.42-5.44 6.33-9.96 11.13-13.17zm-11 38.72c-.1-.23-.2-.47-.3-.7.7-.2 1.64-.45 2.9-.7 1.1-.2 1.8-1.26 1.6-2.34-.22-1.07-1.27-1.8-2.35-1.57-1.52.3-2.66.6-3.5.84-1.62-5.66-1.6-11.63.12-17.33l10.92 4.04c-4.46 12.25-3.2 22.3-1.54 28.25-3.3-2.86-5.97-6.4-7.85-10.48zm40.9 36.05h-24.45c2.9-3.72 7.42-6 12.22-6s9.32 2.28 12.22 6zM-496-54c-4.07 0-8.1-.65-11.93-1.88l1.26-3.8c3.46 1.13 7.04 1.7 10.67 1.7 14.57 0 27.76-9.2 32.82-22.87 3.25-8.77 2.9-18.28-1.02-26.77-3.6-7.85-9.84-13.96-17.68-17.4l1.27-3.83c14.27 6.1 23.6 20 23.6 35.85 0 21.5-17.5 39-39 39zM-182 824h-10v-2c0-3.3-2.7-6-6-6s-6 2.7-6 6v2h-22c-1.1 0-2 .9-2 2s.9 2 2 2h22v2c0 3.3 2.7 6 6 6s6-2.7 6-6v-2h8v16h-80v-16h8v2c0 3.3 2.7 6 6 6s6-2.7 6-6v-2h2c1.1 0 2-.9 2-2s-.9-2-2-2h-2v-2c0-3.3-2.7-6-6-6s-6 2.7-6 6v2h-10c-1.1 0-2 .9-2 2v84c0 1.1.9 2 2 2h84c1.1 0 2-.9 2-2v-12c0-1.1-.9-2-2-2s-2 .9-2 2v2h-68c-1.1 0-2 .9-2 2s.9 2 2 2h68v4h-80v-4h4c1.1 0 2-.9 2-2s-.9-2-2-2h-4v-52h80v27c0 1.1.9 2 2 2s2-.9 2-2v-49c0-1.1-.9-2-2-2zm-16 8c-1.1 0-2-.9-2-2v-8c0-1.1.9-2 2-2s2 .9 2 2v8c0 1.1-.9 2-2 2zm-54-10c0-1.1.9-2 2-2s2 .9 2 2v8c0 1.1-.9 2-2 2s-2-.9-2-2v-8z" class="st0"/><circle cx="-234" cy="826" r="2" class="st0"/><circle cx="-182" cy="883" r="2" class="st0"/><path d="M-233.23 887c-1.65 0-3.18-.66-4.33-1.85-.76-.8-2.03-.82-2.82-.06-.8.76-.83 2.03-.06 2.82 1.9 2 4.46 3.08 7.2 3.08 5.53 0 10-4.5 10-10 0-3.35-1.65-6.3-4.18-8.12 1.78-1.56 2.9-3.84 2.9-6.38 0-4.7-3.8-8.5-8.5-8.5-2.33 0-4.5.93-6.13 2.62-.77.8-.74 2.06.06 2.82.8.77 2.07.74 2.83-.06.86-.9 2-1.38 3.25-1.38 2.48 0 4.5 2.02 4.5 4.5s-2.02 4.5-4.5 4.5c-.02 0-.04 0-.07 0-.04 0-.08 0-.13 0-1.1 0-2 .9-2 2s.9 2 2 2c3.3 0 6 2.7 6 6s-2.7 6-6 6zM-210 891c1.1 0 2-.9 2-2v-29c0-1.1-.9-2-2-2s-2 .9-2 2v2h-2c-1.1 0-2 .9-2 2s.9 2 2 2h2v23c0 1.1.9 2 2 2zM20 162c0 1.1.9 2 2 2h20c1.1 0 2-.9 2-2s-.9-2-2-2H22c-1.1 0-2 .9-2 2zM66 168H22c-1.1 0-2 .9-2 2s.9 2 2 2h44c1.1 0 2-.9 2-2s-.9-2-2-2zM60 178c0-1.1-.9-2-2-2H22c-1.1 0-2 .9-2 2s.9 2 2 2h36c1.1 0 2-.9 2-2zM22 184c-1.1 0-2 .9-2 2s.9 2 2 2h32c1.1 0 2-.9 2-2s-.9-2-2-2H22z" class="st0"/><circle cx="66" cy="178" r="2" class="st0"/><circle cx="58" cy="142" r="2" class="st0"/><path d="M88 190.13V150c0-5.5-4.5-10-10-10H66c-1.1 0-2 .9-2 2s.9 2 2 2h12c3.3 0 6 2.7 6 6v37.23c-3.53-2.05-7.63-3.23-12-3.23-11.87 0-21.75 8.66-23.66 20H44.5c-.98 0-1.9.58-2.4 1.1L32 215.16 21.9 205.1c-.5-.52-1.42-1.1-2.4-1.1H10c-3.3 0-6-2.7-6-6v-48c0-3.3 2.7-6 6-6h28c1.1 0 2-.9 2-2s-.9-2-2-2H10c-5.5 0-10 4.5-10 10v48c0 5.5 4.5 10 10 10h9.17l10.9 10.9c.54.54 1.24.8 1.93.8.7 0 1.4-.26 1.9-.8L44.84 208H48c0 13.23 10.77 24 24 24s24-10.77 24-24c0-7.1-3.1-13.47-8-17.87zM72 228c-11.03 0-20-8.97-20-20s8.97-20 20-20 20 8.97 20 20-8.97 20-20 20zM86 206c-1.1 0-2 .9-2 2 0 6.62-5.38 12-12 12s-12-5.38-12-12 5.38-12 12-12c1.1 0 2-.9 2-2s-.9-2-2-2c-8.82 0-16 7.18-16 16s7.18 16 16 16 16-7.18 16-16c0-1.1-.9-2-2-2z" class="st0"/><circle cx="80" cy="196" r="2" class="st0"/><path d="M68.4 205.6c-.77-.8-2.03-.8-2.8 0s-.8 2.03 0 2.8l5.4 5.43 9.4-9.42c.8-.77.8-2.03 0-2.8s-2.03-.8-2.8 0l-6.6 6.57-2.6-2.58zM-70-176h-36c-3.3 0-6-2.7-6-6s2.7-6 6-6h36c3.3 0 6 2.7 6 6s-2.7 6-6 6zm-36-8c-1.1 0-2 .9-2 2s.9 2 2 2h36c1.1 0 2-.9 2-2s-.9-2-2-2h-36zM88.98-254.1c-.06-1.07-.93-1.9-2-1.9H77c-1.1 0-2 .9-2 2s.9 2 2 2h7.98c-.15 4.84-1.4 18.06-10.36 29.32-1.06-.77-1.68-1.28-1.98-1.53 2.43-3.52 4.03-7.5 5.14-12.36.24-1.07-.43-2.15-1.5-2.4-1.08-.23-2.16.44-2.4 1.52-2.47 10.8-7.44 16.55-20.38 23.44H42.57C23.75-225.63 20.13-234.1 20-268h56c0 2.08-.02 4.07-.05 5.97-.02 1.1.87 2 1.97 2.03 1.13-.02 2-.87 2.03-1.97.04-2.53.05-5.2.05-8.03 0-1.1-.9-2-2-2H18c-1.1 0-2 .9-2 2 0 5.17.07 9.8.24 14H10c-1.06 0-1.94.83-2 1.9-.04.8-.9 19.98 12.5 35.4.38.46.94.7 1.5.7.38 0 .77-.1 1.1-.34 2.13-1.4 3.3-2.35 3.87-2.84 3.4 3.68 7.8 7.05 13.52 10.6l-1.84 6.1c-.05.15-.07.32-.1.48H36c-2.03 0-3.93 1.5-4.43 3.46l-3.03 12.1c-.05.23-.07.44-.08.65-2.56.7-4.46 3.03-4.46 5.8 0 3.3 2.7 6 6 6h36c3.3 0 6-2.7 6-6 0-2.77-1.9-5.1-4.46-5.8 0-.2-.03-.4-.08-.63l-3.03-12.1c-.5-1.98-2.4-3.47-4.43-3.47h-2.57c-.02-.16-.04-.33-.1-.5l-1.8-6.05c6.5-3.47 11.18-6.78 14.6-10.54.62.53 1.78 1.45 3.75 2.76.34.23.73.34 1.1.34.58 0 1.13-.24 1.53-.7C89.88-234.1 89.03-253.3 89-254.1zm-66.6 31.42C13.43-233.9 12.15-247.15 12-252h4.45c.8 12.52 2.92 20.85 7.97 27.73-.28.25-.9.77-2.05 1.6zm21.96 13.17c.06-.22.45-.5.66-.5h6c.2 0 .6.28.66.5l1.65 5.5H42.7l1.64-5.5zM66-180H30c-1.1 0-2-.9-2-2s.9-2 2-2h36c1.1 0 2 .9 2 2s-.9 2-2 2zm-5.46-19.57l2.9 11.57H32.56l1-4H44c1.1 0 2-.9 2-2s-.9-2-2-2h-9.44l.9-3.57c.04-.18.36-.43.54-.43h24c.18 0 .5.25.54.43zM40.23-238.12v.1H40c-2.2 0-4 1.8-4 4 0 4.04 2.1 7.63 5.64 9.6 1.76.97 3.6 1.42 5.83 1.42 3.3 0 6.18-1.15 8.35-3.34 2.12-2.14 3.33-5.13 3.3-8.2 0-3.3-1.1-6-3.05-7.9l2.12-3.83c.3-.6.5-1.25.5-1.93v-.8c0-2.2-1.8-4-4-4H40.83c-2.2 0-4 1.8-4 4v4.9c0 2.18 1.74 3.95 3.9 4l-.1.23c-.27.55-.4 1.14-.4 1.75zm5.3.7c-.43 0-.88.02-1.3.04v-.74l2.9-5.98h-6.3v-4.9H54.7v.8l-4.03 7.27c3.46.87 4.45 3.64 4.45 6.4.03 3.68-2.6 7.53-7.65 7.53-1.65 0-2.83-.34-3.9-.92-2.05-1.14-3.57-3.33-3.57-6.1 1.62 0 3.3 0 4.88 0 .04 1.4.97 2.12 2.46 2.12 1.53 0 2.37-1.14 2.4-2.6-.03-2.55-2.14-2.92-4.2-2.92zM68-262c0-1.1-.9-2-2-2H34c-1.1 0-2 .9-2 2s.9 2 2 2h32c1.1 0 2-.9 2-2z" class="st0"/><circle cx="26" cy="-262" r="2" class="st0"/><circle cx="52" cy="-194" r="2" class="st0"/><path d="M-183.02-254.1c-.06-1.07-.93-1.9-2-1.9H-195c-1.1 0-2 .9-2 2s.9 2 2 2h7.98c-.16 4.85-1.44 18.1-10.36 29.32-1.06-.77-1.68-1.28-1.98-1.53 2.43-3.52 4.03-7.5 5.14-12.36.24-1.07-.43-2.15-1.5-2.4-1.1-.23-2.16.44-2.4 1.52-2.47 10.8-7.44 16.55-20.38 23.44h-10.93c-18.82-11.63-22.44-20.1-22.57-54h56c0 2.08-.02 4.07-.05 5.97 0 1.1.87 2 1.97 2.03 1.1-.03 2.02-.87 2.03-1.97.04-2.53.05-5.2.05-8.03 0-1.1-.9-2-2-2h-60c-1.1 0-2 .9-2 2 0 5.17.07 9.8.24 14H-262c-1.06 0-1.94.83-2 1.9-.04.8-.9 19.98 12.5 35.4.38.46.94.7 1.5.7.38 0 .77-.1 1.1-.34 2.13-1.4 3.3-2.35 3.87-2.84 3.4 3.68 7.8 7.05 13.52 10.6l-1.84 6.1c-.05.15-.06.32-.1.48H-236c-2.03 0-3.93 1.5-4.43 3.46l-3.03 12.1c-.13.55-.14 1.08-.05 1.58-1.52 1.1-2.5 2.86-2.5 4.86 0 3.3 2.7 6 6 6h36c3.3 0 6-2.7 6-6s-2.7-6-6-6h-.5c0-.14 0-.28-.04-.43l-3.03-12.1c-.5-1.98-2.4-3.47-4.43-3.47h-2.57c-.03-.16-.04-.33-.1-.5l-1.8-6.05c6.5-3.47 11.18-6.78 14.6-10.54.62.53 1.78 1.45 3.76 2.76.33.23.7.34 1.1.34.56 0 1.12-.24 1.5-.7 13.37-15.42 12.52-34.6 12.48-35.4zm-66.6 31.42c-8.94-11.23-10.22-24.47-10.38-29.32h4.45c.8 12.52 2.92 20.85 7.97 27.73-.28.25-.9.77-2.05 1.6zm21.96 13.17c.06-.22.44-.5.66-.5h6c.22 0 .6.28.66.5l1.65 5.5h-10.6l1.64-5.5zM-202-182c0 1.1-.9 2-2 2h-36c-1.1 0-2-.9-2-2s.9-2 2-2h36c1.1 0 2 .9 2 2zm-9.46-17.57l2.9 11.57h-30.88l1-4H-228c1.1 0 2-.9 2-2s-.9-2-2-2h-9.44l.9-3.57c.04-.18.36-.43.54-.43h24c.18 0 .5.25.54.43zM-204-262c0-1.1-.9-2-2-2h-32c-1.1 0-2 .9-2 2s.9 2 2 2h32c1.1 0 2-.9 2-2z" class="st0"/><circle cx="-246" cy="-262" r="2" class="st0"/><circle cx="-220" cy="-194" r="2" class="st0"/><path d="M-225.4-224h5.4c2.2 0 4-1.8 4-4v-22c0-2.2-1.8-4-4-4h-8.37c-2.2 0-4 1.8-4 4v4.56c0 1.84 1.25 3.4 2.96 3.86V-228c0 2.2 1.78 4 4 4zm-2.97-26h8.37v22h-5.4v-17.44h-2.97V-250z" class="st0"/><circle cx="67" cy="868" r="2" class="st0"/><circle cx="60" cy="834" r="2" class="st0"/><path d="M86 832H73c-1.1 0-2 .9-2 2s.9 2 2 2h11.96L48 868.34 11.04 836H52c1.1 0 2-.9 2-2s-.9-2-2-2H10c-3.3 0-6 2.7-6 6v52c0 3.3 2.7 6 6 6h76c3.3 0 6-2.7 6-6v-52c0-3.3-2.7-6-6-6zm-53.65 33.53c-.8-.75-2.07-.7-2.82.12L8 889.05v-50.4l38.68 33.85c.38.33.85.5 1.32.5s.94-.17 1.32-.5L88 838.66V889l-14.5-16.33c-.74-.82-2-.9-2.83-.17-.82.74-.9 2-.17 2.83L85.32 892h-74.6l21.75-23.65c.75-.8.7-2.07-.12-2.82z" class="st0"/><circle cx="-205" cy="1020" r="2" class="st0"/><circle cx="-212" cy="986" r="2" class="st0"/><path d="M-182.08 985.47c-.1-.4-.33-.76-.67-1.03l-40-32c-.73-.6-1.77-.6-2.5 0l-40 32c-.34.27-.57.64-.67 1.03-1.27 1.1-2.08 2.72-2.08 4.53v52c0 3.3 2.7 6 6 6h76c3.3 0 6-2.7 6-6v-52c0-1.8-.8-3.43-2.08-4.53zm-16.43 39.2c-.74-.83-2-.9-2.83-.17-.82.74-.9 2-.16 2.83l14.82 16.67h-74.6l21.75-23.65c.75-.8.7-2.07-.12-2.82-.8-.75-2.07-.7-2.82.12l-21.53 23.4v-50.4l38.68 33.85c.38.33.85.5 1.32.5s.94-.17 1.32-.5l23.3-20.37 15.38-13.47V1041l-14.5-16.33zm-47.3-23.4l42.07-6 .75 5.98c0 .03 0 .07 0 .1l.1.5-21.12 18.5-21.8-19.07zm21.8-44.7l34.3 27.43h-6.3c-1.1 0-2 .9-2 2s.9 2 2 2h8.96l-12.23 10.7-.75-5.95c-.06-.53-.34-1-.77-1.34-.4-.32-.95-.46-1.48-.38l-47.48 6.78-11.2-9.8H-220c1.1 0 2-.9 2-2s-.9-2-2-2h-38.3l34.3-27.44zM76.46-87.12l12.12-7.77c.4-.05.77-.22 1.08-.52.12-.12.23-.25.34-.37l1.08-.7c.93-.58 1.2-1.82.6-2.75 0 0 0-.02-.02-.03.1-.52.15-1.06.15-1.62.04-4.98-3.56-11.7-9.4-17.5-.77-.8-2.03-.8-2.8 0-.8.77-.8 2.03 0 2.8 4.93 4.96 8.23 10.85 8.2 14.68 0 .86-.17 1.56-.52 2.12l-16.9 10.82c-.12 0-.25-.02-.38-.02-5.5 0-10.56 1.86-14.6 4.97-3.37-1.32-6.08-2.9-7.85-4.63-5.55-5.43-6.82-10.9-6.83-10.96-.1-.43-.26-.83-.48-1.2l12.47-20.1c1.55 4.88 5.36 10.72 10.56 16 2.5 2.5 7.64 5.6 9.85 6.7.3.15.6.22.9.22.73 0 1.44-.4 1.8-1.1.48-1 .08-2.2-.9-2.7-2.06-1.02-6.75-3.9-8.8-5.95-6-6.1-10.2-13.3-10.15-17.56 0-.4.05-.72.12-1.03l.86-1.37c.97-.52 4.15-1.02 7.18.5 1 .48 2.2.08 2.7-.9.48-1 .08-2.2-.9-2.7-3.1-1.53-6.6-1.72-9.17-1.06-.88-.35-1.9-.03-2.43.8l-.4.67c-.68.68-1.18 1.5-1.5 2.42l-15.5 24.96c-.22-.02-.43-.04-.65-.03l-14.36.78c-1.08.06-2.06.53-2.77 1.34-.7.8-1.06 1.83-.98 2.9.03.5.77 9.64 6.95 19.27L4.34-47.12c-.54.8-.43 1.87.26 2.55.4.38.9.57 1.4.57.4 0 .8-.12 1.16-.37L37-65.54c.52.34 1.06.67 1.62.98.26.26.6.44.97.52 2.04 1.08 4.23 1.98 6.55 2.7C47.48-49.33 57.67-40 70-40c13.23 0 24-10.77 24-24 0-11.02-7.3-20.3-17.54-23.12zm-40-10.93c.08-.02.33.15.35.26.07.28 1.5 6.68 7.96 13 1.84 1.8 4.33 3.38 7.4 4.76-3.5 3.9-5.74 8.92-6.1 14.47-2.8-.98-5.34-2.27-7.64-3.83-.18-.18-.37-.3-.6-.4-1.24-.9-2.42-1.88-3.52-2.94-11-10.75-12.15-24.44-12.2-24.54l14.36-.77zm-22.6 44.03l13.7-20.25c1.17 1.48 2.48 2.96 3.95 4.4.67.64 1.37 1.25 2.1 1.84l-19.75 14zM70-44c-11.03 0-20-8.97-20-20s8.97-20 20-20c.6 0 1.22.03 1.82.08C82.18-82.98 90-74.42 90-64c0 11.03-8.97 20-20 20zM84-66c-1.1 0-2 .9-2 2 0 6.62-5.38 12-12 12s-12-5.38-12-12 5.38-12 12-12c1.1 0 2-.9 2-2s-.9-2-2-2c-8.82 0-16 7.18-16 16s7.18 16 16 16 16-7.18 16-16c0-1.1-.9-2-2-2z" class="st0"/><circle cx="78" cy="-76" r="2" class="st0"/><path d="M66.4-66.4c-.77-.8-2.03-.8-2.8 0-.8.77-.8 2.03 0 2.8l5.4 5.43 8.4-8.42c.8-.77.8-2.03 0-2.8-.77-.8-2.03-.8-2.8 0L69-63.84l-2.6-2.58zM37-77c.5 0 1.02-.2 1.4-.6.8-.77.8-2.03 0-2.8C32.06-86.8 31-93.2 31-93.3c-.16-1.08-1.17-1.84-2.26-1.68-1.1.16-1.86 1.17-1.7 2.26.04.32 1.18 7.75 8.57 15.13.38.4.9.6 1.4.6z" class="st0"/><circle cx="43" cy="-74" r="2" class="st0"/><circle cx="71" cy="-125" r="2" class="st0"/><path d="M-231 428c1.1 0 2-.9 2-2s-.9-2-2-2c-10.88 0-20.43 7.66-22.7 18.22-.24 1.07.44 2.14 1.52 2.37.15.02.3.04.43.04.92 0 1.75-.64 1.95-1.58 1.9-8.73 9.8-15.06 18.8-15.06z" class="st0"/><ellipse cx="-252.001" cy="450.033" class="st0" rx="1.999" ry="1.967"/><circle cx="-212" cy="415" r="2" class="st0"/><path d="M-231 480c17.65 0 32-14.36 32-32s-14.35-32-32-32-32 14.36-32 32c0 10.16 4.67 19.5 12.8 25.6.88.67 2.14.5 2.8-.4.66-.88.48-2.13-.4-2.8-7.12-5.34-11.2-13.5-11.2-22.4 0-15.44 12.56-28 28-28s28 12.56 28 28-12.56 28-28 28c-1.1 0-2 .9-2 2s.9 2 2 2zM-246 455c0 .55.22 1.06.6 1.43l7.2 7c.8.77 2.05.76 2.82-.02l4.88-4.92 4.88 4.93c.4.4.9.6 1.42.6.5 0 1-.2 1.4-.57l7.2-7c.38-.37.6-.88.6-1.42 0-.52-.2-1.04-.6-1.4l-5.05-5.07 5.07-5.12c.78-.78.77-2.04 0-2.8l-7-7c-.8-.8-2.05-.8-2.83 0l-5.1 5.07-5.1-5.08c-.77-.8-2.03-.8-2.8 0l-7 7c-.8.76-.8 2.02-.02 2.8l5.07 5.13-5.06 5.06c-.4.36-.6.88-.6 1.4zm9.88-5.05c.78-.78.78-2.04 0-2.82l-5.06-5.12 4.18-4.17 5.1 5.08c.77.8 2.03.8 2.8 0l5.1-5.07 4.18 4.18-5.07 5.12c-.76.8-.76 2.05.02 2.83l5.03 5.03-4.32 4.2-4.9-4.95c-.38-.38-.9-.6-1.43-.6s-1.05.22-1.42.6l-4.9 4.95-4.33-4.2 5.03-5.03zM-181.23 483.87l-1.17-1.17c-.2-.2-.46-.34-.73-.44l-13.55-13.75c3.6-6 5.68-13 5.68-20.5 0-3.84 0-11-5.34-20.02-.56-.95-1.8-1.26-2.74-.7-.95.56-1.27 1.8-.7 2.74C-195 438.12-195 444.3-195 448c0 19.85-16.15 36-36 36s-36-16.15-36-36 16.15-36 36-36c3.55 0 7.06.5 10.42 1.53 1.06.32 2.18-.28 2.5-1.34.3-1.06-.3-2.18-1.34-2.5-3.74-1.13-7.64-1.7-11.58-1.7-22.06 0-40 17.94-40 40s17.94 40 40 40c6.98 0 13.54-1.8 19.26-4.96l1.3 1.35c.4.4.92.6 1.44.6.5 0 1-.2 1.4-.56.78-.77.8-2.04.04-2.83l-.7-.72c3.56-2.47 6.72-5.5 9.3-8.98l12.57 12.74-1.37 1.38-7.65 7.6-6.18-6.05c-.8-.77-2.05-.76-2.83.03s-.76 2.06.03 2.83l8.16 8c2.6 2.53 5.9 3.84 9 3.84.13 0 .25-.02.38-.02.04 0 .08 0 .12 0 2.62 0 5.02-.94 6.75-2.66 1.74-1.73 2.7-4.12 2.7-6.74 0-3.23-1.44-6.5-3.93-9zm-11.03 12.26l8.6-8.58c2.33 3.04 2.58 7.04.4 9.2-.96.96-2.28 1.45-3.72 1.5-1.84-.07-3.72-.8-5.28-2.12zM-367 428c1.1 0 2-.9 2-2s-.9-2-2-2c-10.88 0-20.43 7.66-22.7 18.22-.24 1.07.44 2.14 1.52 2.37.15.02.3.04.43.04.92 0 1.75-.64 1.95-1.58 1.9-8.73 9.8-15.06 18.8-15.06z" class="st0"/><ellipse cx="-388.001" cy="450.033" class="st0" rx="1.999" ry="1.967"/><circle cx="-348" cy="415" r="2" class="st0"/><path d="M-367 480c17.65 0 32-14.36 32-32s-14.35-32-32-32-32 14.36-32 32c0 10.16 4.67 19.5 12.8 25.6.88.67 2.14.5 2.8-.4.66-.88.48-2.13-.4-2.8-7.12-5.34-11.2-13.5-11.2-22.4 0-15.44 12.56-28 28-28s28 12.56 28 28-12.56 28-28 28c-1.1 0-2 .9-2 2s.9 2 2 2zM-370.2 463.42c.4.4.9.58 1.4.58.52 0 1.03-.2 1.42-.6l18.8-19c.78-.78.77-2.04 0-2.8l-7-7c-.8-.8-2.05-.8-2.83 0l-10.6 10.57-4.6-4.58c-.77-.8-2.03-.8-2.8 0l-7 7c-.4.36-.6.87-.6 1.4s.22 1.05.6 1.42l13.2 13zm-4.8-18.6l4.6 4.6c.77.78 2.03.78 2.8 0l10.6-10.6 4.18 4.2-16 16.15-10.34-10.18 4.16-4.17zM-317.23 483.87l-1.17-1.17c-.2-.2-.46-.34-.73-.44l-13.55-13.75c3.6-6 5.68-13 5.68-20.5 0-3.84 0-11-5.34-20.02-.56-.95-1.8-1.26-2.74-.7-.95.56-1.27 1.8-.7 2.74C-331 438.12-331 444.3-331 448c0 19.85-16.15 36-36 36s-36-16.15-36-36 16.15-36 36-36c3.55 0 7.06.5 10.42 1.53 1.06.32 2.18-.28 2.5-1.34.3-1.06-.3-2.18-1.34-2.5-3.74-1.13-7.64-1.7-11.58-1.7-22.06 0-40 17.94-40 40s17.94 40 40 40c6.98 0 13.54-1.8 19.26-4.96l1.3 1.35c.4.4.92.6 1.44.6.5 0 1-.2 1.4-.56.78-.77.8-2.04.04-2.83l-.7-.72c3.56-2.47 6.72-5.5 9.3-8.98l12.57 12.74-1.37 1.38-7.65 7.6-6.18-6.05c-.8-.77-2.05-.76-2.83.03s-.76 2.06.03 2.83l8.16 8c2.6 2.53 5.9 3.84 9 3.84.13 0 .25-.02.38-.02.04 0 .08 0 .12 0 2.62 0 5.02-.94 6.75-2.66 1.74-1.73 2.7-4.12 2.7-6.74 0-3.23-1.44-6.5-3.93-9zm-11.03 12.26l8.6-8.58c2.33 3.04 2.58 7.04.4 9.2-.96.96-2.28 1.45-3.72 1.5-1.84-.07-3.72-.8-5.28-2.12zM-183.16 598.92c.75-2.05 1.16-4.2 1.16-6.44 0-4.84-2.94-10.73-6.96-14.15 0-.2-.02-.37-.02-.54 0-.22-.02-.43-.02-.64 0-9.4-4.77-15.03-13.48-16.03-1.72-5.37-6.67-9.13-12.3-9.13-4.5 0-7.74 1.5-9.55 4.35-2.1-2.64-5.34-4.35-8.9-4.35-5.3 0-9.72 3.78-10.7 8.8-8.65.46-15.52 7.6-15.52 16.36 0 .72.06 1.4.15 2.1-4.06 3-6.7 7.8-6.7 13.22 0 5.6 2.8 10.53 7.07 13.5-.33 1.28-.52 2.62-.52 4 0 8.95 7.15 16.2 16.03 16.4.1.1.2.16.3.24 1.74 3.7 5.5 5.38 9.9 5.38 3.53 0 6.77-1.36 8.86-3.7 1.3 1.87 3.4 3 6.3 3.47 4.4 5.04 10.86 8.23 18.06 8.23 13.23 0 24-10.77 24-24 0-6.68-2.74-12.73-7.16-17.08zm-2.84-6.44c0 1.27-.17 2.5-.5 3.7-1.95-1.34-4.12-2.4-6.45-3.12.22-.14.4-.3.56-.52.65-.9.44-2.14-.46-2.78-2.33-1.66-3.5-3.57-3.32-5.38.15-1.46 1.15-2.52 2.07-2.92.5-.22 1.22-.37 1.9.14.4.3.86.42 1.32.4 2.82 2.73 4.88 7.04 4.88 10.48zm-30 5.65c-.02-.1-.04-.22-.06-.4-.12-1.1-1.12-1.9-2.2-1.77-1.1.12-1.9 1.1-1.77 2.2.17 1.55.63 2.35 1.23 2.95-.5.65-1 1.32-1.43 2-.6.2-1.2.3-1.77.4v-15.14c.1-.08.2-.18.28-.28 2.56-3.13 6.32-3.43 8.7-2.1 2.7 1.47 3.58 4.6 2.5 8.46-2 .97-3.84 2.22-5.48 3.7zm9.95-6.42c.5-.4 4-3.23 7.9-1.35.03.02.08.03.12.05.52.64 1.17 1.28 1.95 1.93-1.28-.22-2.58-.33-3.92-.33-2.12 0-4.17.28-6.12.8.04-.38.06-.74.07-1.1zm-8.72-35.7c3.38 0 6.5 2.1 8 5.15-.74.3-1.26 1-1.26 1.85 0 .92-.25 9-7.83 9-1.1 0-2 .9-2 2s.9 2 2 2c1.76 0 3.34-.3 4.75-.9.7 2.25 3.26 3.78 5.75 4.03.26.02.52.04.77.04 3.05 0 5.36-1.88 5.97-4.95.2-1.08-.5-2.13-1.58-2.35s-2.13.5-2.35 1.57c-.1.47-.37 1.9-2.43 1.7-1.4-.13-2.35-1-2.35-1.3 0-.43-.14-.8-.36-1.14 2.32-2.44 3.16-5.66 3.46-7.7 0 0 .02 0 .03 0 7.52.4 11.17 4.38 11.17 12.16 0 .04 0 .07 0 .1-.9-.02-1.8.14-2.7.53-2.43 1.05-4.18 3.48-4.46 6.17-.05.48-.06 1.08.03 1.76-2.74-.2-5.08.73-6.65 1.64-.9-2.28-2.52-3.92-4.3-4.9-3.42-1.9-7.6-1.58-10.92.57v-15.47c.78.35 1.62.58 2.45.67.26.02.52.03.77.03 3.05 0 5.36-1.87 5.97-4.94.2-1.08-.5-2.13-1.58-2.35-1.08-.2-2.13.5-2.35 1.57-.1.47-.36 1.9-2.43 1.7-1.4-.13-2.35-1-2.35-1.3 0-.48-.17-.9-.44-1.24.36-3.97 2.56-5.7 7.17-5.7zm-29.05 8.8c.27 2.04 1.1 5.38 3.48 7.9-.22.33-.35.7-.35 1.13 0 .3-.93 1.18-2.34 1.32-2.05.2-2.33-1.24-2.43-1.7-.22-1.1-1.26-1.8-2.35-1.58-1.1.22-1.8 1.27-1.57 2.35.62 3.07 2.93 4.95 5.98 4.95.25 0 .5-.02.77-.04 2.5-.25 5.04-1.78 5.76-4.03 1.42.6 3 .9 4.76.9 1.1 0 2-.9 2-2s-.9-2-2-2c-7.58 0-7.83-8.08-7.83-9 0-.3-.08-.6-.2-.87.06-.18.1-.36.15-.55.64-3.24 3.5-5.58 6.8-5.58 3.5 0 6.5 2.55 7.1 5.78-.23.33-.37.73-.37 1.16 0 .3-.93 1.18-2.34 1.3-2.06.23-2.33-1.22-2.43-1.7-.2-1.07-1.26-1.78-2.35-1.56-1.1.22-1.8 1.27-1.57 2.35.62 3.07 2.93 4.94 5.98 4.94.25 0 .5 0 .77-.03.83-.1 1.67-.32 2.45-.67V583c-3.25-2.1-7.25-2.43-10.63-.63-1.84.98-3.54 2.68-4.47 5.07-1.58-.94-4-1.95-6.85-1.7.42-2.28-.17-4.36-1.38-5.9-1.56-2-3.9-2.9-6.1-2.58 0-.03-.02-.07-.02-.1 0-6.55 5.1-11.96 11.63-12.36zm10.6 63.2c-2.27 0-5.2-.56-6.36-3.2-.2-.47-.48-.87-.82-1.22-.3-.88-.73-2.85.9-4.48.46-.35 2.8-.85 4.32-.08.52.26 1.04.7 1.04 1.9 0 1.1.9 2 2 2s2-.9 2-2c0-2-.78-3.68-2.18-4.8l2.88-3.84c.66-.9.48-2.14-.4-2.8-.9-.66-2.14-.48-2.8.4l-3.28 4.38c-.1.13-.17.27-.24.4-2.46-.24-5.02.46-6.13 1.57-1.9 1.9-2.44 4.13-2.37 6.04-6.06-.8-10.78-6.02-10.78-12.3 0-.96.14-2 .4-3.02.4-1.62-.23-3.32-1.6-4.26-3.35-2.34-5.35-6.15-5.35-10.22 0-3.98 1.85-7.62 5.07-10 .26-.18.48-.4.68-.63.15-.07.3-.14.45-.25 1.13-.85 2.55-.27 3.32.7 1.16 1.47 1.13 4.33-2.77 7.54-.86.7-.98 1.96-.28 2.82.4.48.97.73 1.55.73.44 0 .9-.16 1.27-.47.96-.8 1.75-1.6 2.42-2.43.15-.03.3-.08.44-.15 4.12-1.98 7.78 1.26 7.96 1.4 0 .03.03.03.04.05.02 1.38.24 2.9.75 4.54.27.87 1.06 1.42 1.92 1.42.2 0 .4-.03.58-.08 1.06-.33 1.65-1.44 1.33-2.5-1.3-4.28-.35-7.75 2.52-9.28 2.25-1.2 5.85-1.02 8.47 2.18.08.1.18.2.28.28v15.04c-1-.2-2.12-.6-3.1-1.38.6-1.17.98-2.47 1.13-3.85.13-1.1-.67-2.1-1.76-2.2-1.1-.13-2.1.66-2.2 1.76-.47 4.16-3.73 6.3-6.76 6.58-2.9.28-6.5-1.12-7.9-5.83-.32-1.06-1.44-1.66-2.5-1.34-1.05.32-1.66 1.43-1.34 2.5.7 2.28 1.85 4.2 3.35 5.64-.45.3-.9.66-1.32 1.1-1.6 1.7-2.3 4.07-2.1 7.03.07 1.06.95 1.87 2 1.87.04 0 .08 0 .13 0 1.1-.08 1.94-1.03 1.87-2.13-.12-1.8.22-3.14 1-4 .98-1.07 2.48-1.14 2.55-1.14.17 0 .34-.03.5-.08.97.27 2 .42 3.05.42.36 0 .73 0 1.1-.05 2.67-.25 5.05-1.36 6.86-3.07 1.8 1.4 3.86 2 5.47 2.23v14.56c0 3.93-3.64 5.98-7.23 5.98zm33.22 8c-6.14 0-11.63-2.78-15.3-7.15-.1-.14-.2-.27-.32-.4-2.73-3.4-4.38-7.74-4.38-12.45 0-5.16 1.98-9.86 5.2-13.42.04-.02.06-.03.1-.05.15-.14.28-.3.38-.46 3.64-3.74 8.7-6.07 14.32-6.07 11.03 0 20 8.97 20 20s-8.97 20-20 20zM-186 614c-1.1 0-2 .9-2 2 0 6.62-5.38 12-12 12s-12-5.38-12-12 5.38-12 12-12c1.1 0 2-.9 2-2s-.9-2-2-2c-8.82 0-16 7.18-16 16s7.18 16 16 16 16-7.18 16-16c0-1.1-.9-2-2-2zM-198 610c0-1.1-.9-2-2-2s-2 .9-2 2v6c0 1.1.9 2 2 2s2-.9 2-2v-6z" class="st0"/><circle cx="-200" cy="622" r="2" class="st0"/><circle cx="-192" cy="605" r="2" class="st0"/><path d="M-316.1 1000.6c.06-.2.1-.4.1-.6v-15c0-1.1-.9-2-2-2s-2 .9-2 2v11.13c-4.25-3.8-9.86-6.13-16-6.13-1.02 0-2.02.07-3 .2v-.76l7.63-2.54c1.05-.35 1.62-1.48 1.27-2.53s-1.5-1.62-2.53-1.27l-6.37 2.13v-3.88l13.74-5.5c1.03-.4 1.53-1.57 1.12-2.6-.4-1.02-1.58-1.5-2.6-1.1l-12.26 4.9v-12.68l19-7.44V961c0 1.1.9 2 2 2s2-.9 2-2v-7c0-.66-.33-1.28-.87-1.65-.55-.37-1.24-.45-1.86-.2l-22.48 8.78-28.46-4.9c-.1-.02-.2-.02-.3-.02-.04 0-.1 0-.13 0-.14 0-.3.03-.43.07l-32 9c-.87.25-1.47 1.03-1.47 1.93v30c0 1.1.9 2 2 2s2-.9 2-2v-28.5l28-7.86v11.95l-12.67 4.52c-1.04.37-1.58 1.5-1.2 2.55s1.5 1.58 2.54 1.2l11.33-4.03v36.64c-.68.18-1.35.35-2 .47-1.08.2-1.8 1.26-1.58 2.34.2.95 1.03 1.6 1.97 1.6.1 0 .24 0 .37-.02.4-.08.82-.18 1.23-.28v8.13l-28 13.12V1021c0-1.1-.9-2-2-2s-2 .9-2 2v21c0 .68.35 1.32.93 1.7.32.2.7.3 1.07.3.3 0 .58-.06.85-.2l31.36-14.7 16.34 3.95c.15.04.3.05.47.05.06 0 .1 0 .17 0 3.94 5.3 9.34 10.3 15.72 14.56.33.23.7.34 1.1.34.4 0 .83-.13 1.18-.38 6.86-5 22.82-18.26 22.82-33.62 0-4.96-1.5-9.57-4.1-13.4zm-26.9-23.06l-25-5.17v-12l25 4.3v12.87zm-25 38.9c.18-.06.37-.12.55-.2 1.04-.34 1.6-1.48 1.25-2.52-.27-.8-1-1.32-1.8-1.35v-35.9l25 5.16v3.88l-15.57-3.45c-1.08-.24-2.14.44-2.38 1.52-.24 1.07.44 2.14 1.52 2.38l16.43 3.65v1.44c-8.38 2.57-14.83 9.6-16.54 18.32-.65.2-1.3.43-1.95.64-1.03.36-1.6 1.5-1.24 2.54.28.83 1.06 1.36 1.9 1.36.2 0 .42-.03.63-.1.06-.03.14-.05.2-.08 0 .1 0 .2 0 .28 0 4.72 1.38 9.53 4.07 14.34l-12.07-2.92v-8.98zm31.95 27.1c-5.84-4.06-10.74-8.77-14.22-13.7-3.8-5.38-5.73-10.7-5.73-15.84 0-11.03 8.97-20 20-20s20 8.97 20 20c0 12.78-13.22 24.4-20.05 29.55zM-322 1012c-1.1 0-2 .9-2 2 0 6.62-5.38 12-12 12s-12-5.38-12-12 5.38-12 12-12c1.1 0 2-.9 2-2s-.9-2-2-2c-8.82 0-16 7.18-16 16s7.18 16 16 16 16-7.18 16-16c0-1.1-.9-2-2-2zM-334 1008c0-1.1-.9-2-2-2s-2 .9-2 2v6c0 1.1.9 2 2 2s2-.9 2-2v-6z" class="st0"/><circle cx="-336" cy="1020" r="2" class="st0"/><circle cx="-328" cy="1003" r="2" class="st0"/><circle cx="-318" cy="969" r="2" class="st0"/><circle cx="-402" cy="1013" r="2" class="st0"/><path d="M-381.6 1018.07c.13.02.26.03.4.03.93 0 1.76-.66 1.95-1.62.2-1.08-.5-2.13-1.58-2.34-1.68-.33-3.1-.98-4.2-1.95-.8-.75-2.08-.67-2.8.15-.74.83-.67 2.1.16 2.83 1.64 1.45 3.68 2.42 6.07 2.9zM-387.8 1006.67c-.13-.83-.2-1.73-.2-2.67 0-1.1-.9-2-2-2s-2 .9-2 2c0 1.16.1 2.28.26 3.32.16.98 1 1.67 1.97 1.67.1 0 .22-.02.33-.03 1.1-.18 1.83-1.2 1.65-2.3zM-395.4 999.4c.38.4.9.6 1.4.6s1.02-.2 1.4-.6l2.6-2.57 2.6 2.58c.38.4.9.6 1.4.6s1.02-.2 1.4-.6c.8-.77.8-2.03 0-2.8l-2.57-2.6 2.58-2.6c.8-.77.8-2.03 0-2.8-.77-.8-2.03-.8-2.8 0l-2.6 2.57-2.6-2.58c-.77-.8-2.03-.8-2.8 0-.8.77-.8 2.03 0 2.8l2.57 2.6-2.58 2.6c-.8.77-.8 2.03 0 2.8z" class="st0"/><circle cx="-454" cy="969" r="2" class="st0"/><circle cx="-538" cy="1013" r="2" class="st0"/><path d="M-462.64 1009.05c-1.1.2-1.8 1.26-1.6 2.34.16.8.24 1.68.24 2.6 0 1.1.9 2 2 2s2-.9 2-2c0-1.17-.1-2.3-.3-3.36-.2-1.08-1.25-1.8-2.34-1.6zM-517.73 1018.04c.13.03.26.04.4.04.93 0 1.76-.66 1.95-1.6.22-1.1-.47-2.14-1.56-2.36-1.65-.34-3.03-1-4.1-1.97-.83-.73-2.1-.67-2.84.16s-.66 2.1.16 2.83c1.6 1.45 3.63 2.43 6 2.9zM-472.2 1002.36c-1.07.18-1.8 1.22-1.63 2.3.2 1.1 1.2 1.82 2.3 1.64 1.75-.3 3.2-.15 4.33.42.28.14.6.2.9.2.73 0 1.43-.4 1.78-1.1.5-.98.1-2.18-.88-2.68-1.9-.95-4.2-1.22-6.8-.78zM-497.18 1014c.2 0 .43-.02.64-.1 1.75-.58 3.52-1.17 5.36-1.76 1.05-.34 1.63-1.47 1.3-2.52s-1.47-1.63-2.52-1.3c-1.86.6-3.65 1.2-5.42 1.8-1.05.35-1.6 1.48-1.26 2.53.28.84 1.06 1.36 1.9 1.36zM-523.8 1006.67c-.13-.83-.2-1.73-.2-2.67 0-1.1-.9-2-2-2s-2 .9-2 2c0 1.16.1 2.28.26 3.32.16.98 1 1.67 1.97 1.67.1 0 .22-.02.33-.03 1.1-.18 1.83-1.2 1.65-2.3zM-531.4 999.4c.38.4.9.6 1.4.6s1.02-.2 1.4-.6l2.6-2.57 2.6 2.58c.38.4.9.6 1.4.6s1.02-.2 1.4-.6c.8-.77.8-2.03 0-2.8l-2.57-2.6 2.58-2.6c.8-.77.8-2.03 0-2.8-.77-.8-2.03-.8-2.8 0l-2.6 2.57-2.6-2.58c-.77-.8-2.03-.8-2.8 0-.8.77-.8 2.03 0 2.8l2.57 2.6-2.58 2.6c-.8.77-.8 2.03 0 2.8zM-452.87 952.35c-.55-.37-1.24-.45-1.86-.2l-22.48 8.78-28.43-4.9h-.03c-.1-.02-.2-.02-.3-.02-.04 0-.08 0-.13 0-.14 0-.3.03-.43.07l-32 9c-.87.25-1.47 1.03-1.47 1.93v30c0 1.1.9 2 2 2s2-.9 2-2v-28.5l28-7.86v11.95l-12.67 4.52c-1.04.37-1.58 1.5-1.2 2.55s1.5 1.58 2.54 1.2l11.33-4.03v36.64c-.74.2-1.48.37-2.18.5-1.1.2-1.8 1.25-1.6 2.34.18.96 1.02 1.63 1.96 1.63.13 0 .25 0 .37-.03.47-.1.96-.2 1.45-.32v8.13l-28 13.12V1021c0-1.1-.9-2-2-2s-2 .9-2 2v21c0 .68.35 1.32.93 1.7.32.2.7.3 1.07.3.3 0 .58-.06.85-.2l31.36-14.7 28.33 6.84c.16.04.3.06.47.06.2 0 .4-.04.6-.1.06-.02.12-.05.18-.08.1-.04.18-.06.26-.1l23-14c.6-.37.96-1.02.96-1.72v-35c0-1.1-.9-2-2-2s-2 .9-2 2v33.88l-19 11.56v-41l7.63-2.54c1.05-.35 1.62-1.48 1.27-2.53s-1.5-1.62-2.53-1.27l-6.37 2.13v-3.88l13.74-5.5c1.03-.4 1.53-1.57 1.12-2.6-.4-1.02-1.58-1.5-2.6-1.1l-12.26 4.9v-12.68l19-7.44V961c0 1.1.9 2 2 2s2-.9 2-2v-7c0-.66-.33-1.28-.87-1.65zm-26.13 25.2l-25-5.18v-12l25 4.3v12.87zm0 4.08v3.88l-15.57-3.45c-1.08-.24-2.14.44-2.38 1.52-.24 1.07.44 2.14 1.52 2.38l16.43 3.65v14.94c-.2 0-.4 0-.58.05-1.86.48-3.67.97-5.52 1.5-1.07.3-1.68 1.4-1.38 2.48.26.87 1.06 1.45 1.93 1.45.18 0 .36-.03.55-.08 1.68-.48 3.32-.93 5-1.37v22.88l-25-6.03v-9l.3-.1c1.04-.34 1.6-1.48 1.25-2.52-.24-.7-.85-1.2-1.55-1.32v-36.02l25 5.17zM-192-358.62v-11.5l12.9-5.27c1.82-.73 2-2.06 2-2.6s-.18-1.87-2-2.6l-15.14-6.25c-1.02-.42-2.2.07-2.6 1.1-.43 1 .06 2.18 1.08 2.6l12.5 5.14-37.65 15.4c-.54.2-1.66.2-2.2 0l-37.74-15.45 37.8-16.32c.5-.22 1.58-.22 2.08 0l5.17 2.23c1.02.44 2.2-.03 2.64-1.04.44-1.02-.03-2.2-1.04-2.63l-5.17-2.24c-1.52-.66-3.74-.66-5.26 0l-40.33 17.4c-1.12.5-1.6 1.2-1.8 1.8-.73.3-1.24 1-1.24 1.84v31.38c-.34.5-.68.98-1 1.43-1.6 2.27-3 4.22-3 6.45 0 3.17 2.7 5.75 6 5.75s6-2.58 6-5.75c0-2.23-1.4-4.18-3-6.44-.32-.44-.66-.92-1-1.42v-29.4l12 4.9V-345c0 .6.26 1.15.7 1.53.45.37 10.62 8.82 27.4 9.43 1 12.32 11.33 22.04 23.9 22.04 13.23 0 24-10.77 24-24 0-10.43-6.7-19.32-16-22.62zM-266-336c-1.1 0-2-.8-2-1.75 0-.88.94-2.26 2-3.76 1.06 1.5 2 2.87 2 3.75 0 .96-.9 1.75-2 1.75zm18-14.54c3.46 2.64 9.42 6.14 17.74 7.24.1 0 .18.02.26.02 1 0 1.85-.74 1.98-1.74.15-1.1-.62-2.1-1.72-2.25-10.2-1.34-16.54-6.86-18.26-8.54v-12.68l23.4 9.57c.75.3 1.67.46 2.6.46s1.85-.16 2.6-.47l23.4-9.58v8.82c-1.3-.22-2.64-.34-4-.34-12.54 0-22.86 9.67-23.9 21.95-12.9-.52-21.64-6.15-24.1-7.94v-4.54zm48 34.54c-11.03 0-20-8.97-20-20s8.97-20 20-20c1.67 0 3.28.23 4.83.6.33.25.73.4 1.17.4.06 0 .1 0 .17-.02 8 2.6 13.83 10.14 13.83 19.02 0 11.03-8.97 20-20 20zM-186-338c-1.1 0-2 .9-2 2 0 6.62-5.38 12-12 12s-12-5.38-12-12 5.38-12 12-12c1.1 0 2-.9 2-2s-.9-2-2-2c-8.82 0-16 7.18-16 16s7.18 16 16 16 16-7.18 16-16c0-1.1-.9-2-2-2z" class="st0"/><circle cx="-192" cy="-348" r="2" class="st0"/><path d="M-203.6-338.4c-.77-.8-2.03-.8-2.8 0-.8.77-.8 2.03 0 2.8l5.4 5.43 8.4-8.42c.8-.77.8-2.03 0-2.8-.77-.8-2.03-.8-2.8 0l-5.6 5.57-2.6-2.58z" class="st0"/><circle cx="-208" cy="-391" r="2" class="st0"/><path d="M-221.26-390.86c-.53-.2-1.12-.18-1.63.07l-4 2c-.98.5-1.38 1.7-.9 2.7.5.98 1.7 1.38 2.7.9l3.2-1.6 14.16 5.66c.24.1.5.14.74.14.8 0 1.54-.48 1.86-1.26.4-1.02-.1-2.2-1.12-2.6l-15-6z" class="st0"/><circle cx="-232" cy="-384" r="2" class="st0"/></g><g id="Слой_2" class="st1"><path d="M-408-408h96v96h-96zM-272-408h96v96h-96zM-136-408h96v96h-96zM-544-408h96v96h-96zM-408-272h96v96h-96zM-272-272h96v96h-96zM-136-272h96v96h-96zM-544-272h96v96h-96zM-408-136h96v96h-96zM-272-136h96v96h-96zM-136-136h96v96h-96zM-544-136h96v96h-96zM-408 0h96v96h-96zM-272 0h96v96h-96zM-136 0h96v96h-96zM-544 0h96v96h-96zM-408 136h96v96h-96zM-272 136h96v96h-96zM-136 136h96v96h-96zM-544 136h96v96h-96zM-408 272h96v96h-96zM-272 272h96v96h-96zM-136 272h96v96h-96zM-544 272h96v96h-96zM-408 408h96v96h-96zM-272 408h96v96h-96zM-136 408h96v96h-96zM-544 408h96v96h-96zM-408 544h96v96h-96zM-272 544h96v96h-96zM-136 544h96v96h-96zM0-408h96v96H0zM0-272h96v96H0zM0-136h96v96H0zM0 0h96v96H0zM0 136h96v96H0zM0 272h96v96H0zM0 408h96v96H0zM0 544h96v96H0zM-544 544h96v96h-96z" class="st2"/></g></svg>